<svg width="2155" height="2013" xmlns="http://www.w3.org/2000/svg" xmlns:xlink="http://www.w3.org/1999/xlink" xml:space="preserve" overflow="hidden"><g transform="translate(-1128 -270)"><rect x="1132.5" y="273.5" width="2139" height="104" stroke="#E8E8E8" stroke-width="6.875" stroke-miterlimit="8" fill="#E4E4E4"/><text font-family="Times New Roman,Times New Roman_MSFontService,sans-serif" font-weight="700" font-size="55" transform="matrix(1 0 0 1 1468.75 345)">Scenario #6: </text><text font-family="Times New Roman,Times New Roman_MSFontService,sans-serif" font-weight="400" font-size="55" transform="matrix(1 0 0 1 1774.68 345)">Line </text><text font-family="Times New Roman,Times New Roman_MSFontService,sans-serif" font-weight="400" font-size="55" transform="matrix(1 0 0 1 1889.84 345)">–</text><text font-family="Times New Roman,Times New Roman_MSFontService,sans-serif" font-weight="400" font-size="55" transform="matrix(1 0 0 1 1931.09 345)">5 Workstations </text><text font-family="Times New Roman,Times New Roman_MSFontService,sans-serif" font-weight="400" font-size="55" transform="matrix(1 0 0 1 2274.61 345)">–</text><text font-family="Times New Roman,Times New Roman_MSFontService,sans-serif" font-weight="400" font-size="55" transform="matrix(1 0 0 1 2315.86 345)">Division of Labor </text><text font-family="Times New Roman,Times New Roman_MSFontService,sans-serif" font-weight="400" font-size="55" transform="matrix(1 0 0 1 2724.35 345)">–</text><text font-family="Times New Roman,Times New Roman_MSFontService,sans-serif" font-weight="400" font-size="55" transform="matrix(1 0 0 1 2765.6 345)">Manual </text><rect x="1131.5" y="405.5" width="2138" height="1388" stroke="#000000" stroke-width="6.875" stroke-miterlimit="8" fill="#FFFFFF"/><rect x="1751.5" y="428.5" width="219" height="312" stroke="#E8E8E8" stroke-width="6.875" stroke-miterlimit="8" fill="#E8E8E8"/><text font-family="Times New Roman,Times New Roman_MSFontService,sans-serif" font-weight="400" font-size="55" transform="matrix(1 0 0 1 1782.31 604)">WS</text><text font-family="Times New Roman,Times New Roman_MSFontService,sans-serif" font-weight="400" font-size="55" transform="matrix(1 0 0 1 1864.81 604)">-</text><text font-family="Times New Roman,Times New Roman_MSFontService,sans-serif" font-weight="400" font-size="55" transform="matrix(1 0 0 1 1883.14 604)">03</text><rect x="2200.5" y="428.5" width="219" height="312" stroke="#E8E8E8" stroke-width="6.875" stroke-miterlimit="8" fill="#E8E8E8"/><text font-family="Times New Roman,Times New Roman_MSFontService,sans-serif" font-weight="400" font-size="55" transform="matrix(1 0 0 1 2231.56 604)">WS</text><text font-family="Times New Roman,Times New Roman_MSFontService,sans-serif" font-weight="400" font-size="55" transform="matrix(1 0 0 1 2314.06 604)">-</text><text font-family="Times New Roman,Times New Roman_MSFontService,sans-serif" font-weight="400" font-size="55" transform="matrix(1 0 0 1 2332.39 604)">04</text><rect x="1747.5" y="1441.5" width="219" height="312" stroke="#E8E8E8" stroke-width="6.875" stroke-miterlimit="8" fill="#E8E8E8"/><text font-family="Times New Roman,Times New Roman_MSFontService,sans-serif" font-weight="400" font-size="55" transform="matrix(1 0 0 1 1778.97 1617)">WS</text><text font-family="Times New Roman,Times New Roman_MSFontService,sans-serif" font-weight="400" font-size="55" transform="matrix(1 0 0 1 1861.47 1617)">-</text><text font-family="Times New Roman,Times New Roman_MSFontService,sans-serif" font-weight="400" font-size="55" transform="matrix(1 0 0 1 1879.81 1617)">01</text><rect x="1603.5" y="428.5" width="126" height="312" stroke="#000000" stroke-width="6.875" stroke-miterlimit="8" fill="#FFFFFF"/><text font-family="Times New Roman,Times New Roman_MSFontService,sans-serif" font-weight="400" font-size="55" transform="matrix(1 0 0 1 1611.17 604)">B</text><text font-family="Times New Roman,Times New Roman_MSFontService,sans-serif" font-weight="400" font-size="55" transform="matrix(1 0 0 1 1647.84 604)">-</text><text font-family="Times New Roman,Times New Roman_MSFontService,sans-serif" font-weight="400" font-size="55" transform="matrix(1 0 0 1 1666.17 604)">03</text><rect x="2064.5" y="428.5" width="125" height="312" stroke="#000000" stroke-width="6.875" stroke-miterlimit="8" fill="#FFFFFF"/><text font-family="Times New Roman,Times New Roman_MSFontService,sans-serif" font-weight="400" font-size="55" transform="matrix(1 0 0 1 2071.32 604)">B</text><text font-family="Times New Roman,Times New Roman_MSFontService,sans-serif" font-weight="400" font-size="55" transform="matrix(1 0 0 1 2107.98 604)">-</text><text font-family="Times New Roman,Times New Roman_MSFontService,sans-serif" font-weight="400" font-size="55" transform="matrix(1 0 0 1 2126.32 604)">04</text><rect x="1605.5" y="1441.5" width="125" height="312" stroke="#000000" stroke-width="6.875" stroke-miterlimit="8" fill="#FFFFFF"/><text font-family="Times New Roman,Times New Roman_MSFontService,sans-serif" font-weight="400" font-size="55" transform="matrix(1 0 0 1 1619.5 1617)">B</text><text font-family="Times New Roman,Times New Roman_MSFontService,sans-serif" font-weight="400" font-size="55" transform="matrix(1 0 0 1 1656.17 1617)">-</text><text font-family="Times New Roman,Times New Roman_MSFontService,sans-serif" font-weight="400" font-size="55" transform="matrix(1 0 0 1 1674.5 1617)">01</text><rect x="1180.5" y="905.5" width="260" height="306" stroke="#7F7F7F" stroke-width="6.875" stroke-miterlimit="8" fill="#7F7F7F"/><text font-family="Times New Roman,Times New Roman_MSFontService,sans-serif" font-weight="400" font-size="55" transform="matrix(1 0 0 1 1206.23 1078)">Goods</text><text font-family="Times New Roman,Times New Roman_MSFontService,sans-serif" font-weight="400" font-size="55" transform="matrix(1 0 0 1 1349.46 1078)">-</text><text font-family="Times New Roman,Times New Roman_MSFontService,sans-serif" font-weight="400" font-size="55" transform="matrix(1 0 0 1 1367.79 1078)">In</text><rect x="2960.5" y="905.5" width="273" height="302" stroke="#7F7F7F" stroke-width="6.875" stroke-miterlimit="8" fill="#7F7F7F"/><text font-family="Times New Roman,Times New Roman_MSFontService,sans-serif" font-weight="400" font-size="55" transform="matrix(1 0 0 1 2974.73 1076)">Warehouse</text><rect x="2208.5" y="1441.5" width="219" height="312" stroke="#E8E8E8" stroke-width="6.875" stroke-miterlimit="8" fill="#E8E8E8"/><text font-family="Times New Roman,Times New Roman_MSFontService,sans-serif" font-weight="400" font-size="55" transform="matrix(1 0 0 1 2239.12 1617)">WS</text><text font-family="Times New Roman,Times New Roman_MSFontService,sans-serif" font-weight="400" font-size="55" transform="matrix(1 0 0 1 2321.62 1617)">-</text><text font-family="Times New Roman,Times New Roman_MSFontService,sans-serif" font-weight="400" font-size="55" transform="matrix(1 0 0 1 2339.95 1617)">02</text><rect x="2065.5" y="1441.5" width="126" height="312" stroke="#000000" stroke-width="6.875" stroke-miterlimit="8" fill="#FFFFFF"/><text font-family="Times New Roman,Times New Roman_MSFontService,sans-serif" font-weight="400" font-size="55" transform="matrix(1 0 0 1 2072.77 1617)">B</text><text font-family="Times New Roman,Times New Roman_MSFontService,sans-serif" font-weight="400" font-size="55" transform="matrix(1 0 0 1 2109.43 1617)">-</text><text font-family="Times New Roman,Times New Roman_MSFontService,sans-serif" font-weight="400" font-size="55" transform="matrix(1 0 0 1 2127.77 1617)">02</text><rect x="2630.5" y="426.5" width="219" height="312" stroke="#E8E8E8" stroke-width="6.875" stroke-miterlimit="8" fill="#E8E8E8"/><text font-family="Times New Roman,Times New Roman_MSFontService,sans-serif" font-weight="400" font-size="55" transform="matrix(1 0 0 1 2661.59 602)">WS</text><text font-family="Times New Roman,Times New Roman_MSFontService,sans-serif" font-weight="400" font-size="55" transform="matrix(1 0 0 1 2744.09 602)">-</text><text font-family="Times New Roman,Times New Roman_MSFontService,sans-serif" font-weight="400" font-size="55" transform="matrix(1 0 0 1 2762.43 602)">05</text><rect x="2494.5" y="426.5" width="125" height="312" stroke="#000000" stroke-width="6.875" stroke-miterlimit="8" fill="#FFFFFF"/><text font-family="Times New Roman,Times New Roman_MSFontService,sans-serif" font-weight="400" font-size="55" transform="matrix(1 0 0 1 2501.35 602)">B</text><text font-family="Times New Roman,Times New Roman_MSFontService,sans-serif" font-weight="400" font-size="55" transform="matrix(1 0 0 1 2538.02 602)">-</text><text font-family="Times New Roman,Times New Roman_MSFontService,sans-serif" font-weight="400" font-size="55" transform="matrix(1 0 0 1 2556.35 602)">05</text><rect x="1603.5" y="1364.5" width="169" height="59.0001" stroke="#FCF600" stroke-width="6.875" stroke-miterlimit="8" fill="#FCF600"/><text font-family="Times New Roman,Times New Roman_MSFontService,sans-serif" font-weight="400" font-size="55" transform="matrix(1 0 0 1 1665.77 1414)">S1</text><rect x="1801.5" y="1367.5" width="169" height="59.0001" stroke="#FCF600" stroke-width="6.875" stroke-miterlimit="8" fill="#FCF600"/><text font-family="Times New Roman,Times New Roman_MSFontService,sans-serif" font-weight="400" font-size="55" transform="matrix(1 0 0 1 1863.19 1416)">S2</text><path d="M1604.04 1394.06 1440.5 1058.5" stroke="#FCF600" stroke-width="6.875" stroke-miterlimit="8" fill="#E52601" fill-rule="evenodd"/><path d="M1801.02 1394.5 1772.5 1394.5" stroke="#FCF600" stroke-width="6.875" stroke-miterlimit="8" fill="#E52601" fill-rule="evenodd"/><rect x="1603.5" y="1288.5" width="169" height="59.0001" stroke="#FAD9D5" stroke-width="6.875" stroke-miterlimit="8" fill="#FAD9D5"/><text font-family="Times New Roman,Times New Roman_MSFontService,sans-serif" font-weight="400" font-size="55" transform="matrix(1 0 0 1 1665.77 1337)">S1</text><rect x="1805.5" y="1290.5" width="169" height="59.0001" stroke="#FAD9D5" stroke-width="6.875" stroke-miterlimit="8" fill="#FAD9D5"/><text font-family="Times New Roman,Times New Roman_MSFontService,sans-serif" font-weight="400" font-size="55" transform="matrix(1 0 0 1 1867.81 1339)">S2</text><path d="M1604.04 1317.75 1440.5 1058.5" stroke="#FAD9D5" stroke-width="6.875" stroke-miterlimit="8" fill="#E52601" fill-rule="evenodd"/><path d="M1805.64 1317.5 1772.5 1317.5" stroke="#FAD9D5" stroke-width="6.875" stroke-miterlimit="8" fill="#E52601" fill-rule="evenodd"/><rect x="1603.5" y="1211.5" width="169" height="59.0001" stroke="#CCE5FF" stroke-width="6.875" stroke-miterlimit="8" fill="#CCE5FF"/><text font-family="Times New Roman,Times New Roman_MSFontService,sans-serif" font-weight="400" font-size="55" transform="matrix(1 0 0 1 1665.77 1260)">S1</text><path d="M1604.04 1240.8 1440.5 1058.5" stroke="#CCE5FF" stroke-width="6.875" stroke-miterlimit="8" fill="#E52601" fill-rule="evenodd"/><rect x="2066.5" y="1366.5" width="168" height="59.0001" stroke="#FCF600" stroke-width="6.875" stroke-miterlimit="8" fill="#FCF600"/><text font-family="Times New Roman,Times New Roman_MSFontService,sans-serif" font-weight="400" font-size="55" transform="matrix(1 0 0 1 2127.9 1415)">S3</text><rect x="2263.5" y="1369.5" width="169" height="58.0001" stroke="#FCF600" stroke-width="6.875" stroke-miterlimit="8" fill="#FCF600"/><text font-family="Times New Roman,Times New Roman_MSFontService,sans-serif" font-weight="400" font-size="55" transform="matrix(1 0 0 1 2325.31 1418)">S4</text><path d="M2263.02 1395.5 2234.5 1395.5" stroke="#FCF600" stroke-width="6.875" stroke-miterlimit="8" fill="#E52601" fill-rule="evenodd"/><path d="M0 0 95.8083 1.1249" stroke="#FCF600" stroke-width="6.875" stroke-miterlimit="8" fill="#E52601" fill-rule="evenodd" transform="matrix(1 0 0 -1 1970.5 1396.62)"/><rect x="2066.5" y="1290.5" width="169" height="58.0001" stroke="#FAD9D5" stroke-width="6.875" stroke-miterlimit="8" fill="#FAD9D5"/><text font-family="Times New Roman,Times New Roman_MSFontService,sans-serif" font-weight="400" font-size="55" transform="matrix(1 0 0 1 2128.53 1339)">S3</text><rect x="2268.5" y="1291.5" width="169" height="59.0001" stroke="#FAD9D5" stroke-width="6.875" stroke-miterlimit="8" fill="#FAD9D5"/><text font-family="Times New Roman,Times New Roman_MSFontService,sans-serif" font-weight="400" font-size="55" transform="matrix(1 0 0 1 2330.56 1341)">S4</text><path d="M2268.64 1319.5 2235.5 1319.5" stroke="#FAD9D5" stroke-width="6.875" stroke-miterlimit="8" fill="#E52601" fill-rule="evenodd"/><path d="M0 0 91.8247 0.168176" stroke="#FAD9D5" stroke-width="6.875" stroke-miterlimit="8" fill="#E52601" fill-rule="evenodd" transform="matrix(-1 0 0 1 2066.32 1319.5)"/><path d="M0 0 519.1 269.958" fill="#E52601" fill-rule="evenodd" transform="matrix(-1 0 0 1 2960.6 1056.5)"/><path d="M21.9186 7.52421 520.686 266.908 517.514 273.008 18.7466 13.6237ZM18.0539 24.8871 0 0 30.742 0.489166Z" fill="#FAD9D5" transform="matrix(-1 0 0 1 2960.6 1056.5)"/><rect x="2067.5" y="1213.5" width="168" height="59.0001" stroke="#CCE5FF" stroke-width="6.875" stroke-miterlimit="8" fill="#CCE5FF"/><text font-family="Times New Roman,Times New Roman_MSFontService,sans-serif" font-weight="400" font-size="55" transform="matrix(1 0 0 1 2128.99 1263)">S3</text><rect x="2066.5" y="1135.5" width="169" height="59.0001" stroke="#CDEB8B" stroke-width="6.875" stroke-miterlimit="8" fill="#CDEB8B"/><text font-family="Times New Roman,Times New Roman_MSFontService,sans-serif" font-weight="400" font-size="55" transform="matrix(1 0 0 1 2128.53 1185)">S3</text><rect x="2268.5" y="1135.5" width="169" height="59.0001" stroke="#CDEB8B" stroke-width="6.875" stroke-miterlimit="8" fill="#CDEB8B"/><text font-family="Times New Roman,Times New Roman_MSFontService,sans-serif" font-weight="400" font-size="55" transform="matrix(1 0 0 1 2330.56 1185)">S4</text><path d="M2066.79 1165.02 1440.5 1058.5" stroke="#CDEB8B" stroke-width="6.875" stroke-miterlimit="8" fill="#E52601" fill-rule="evenodd"/><path d="M2066.82 1242.83 1772.5 1240.5" stroke="#1CA1E2" stroke-width="6.875" stroke-miterlimit="8" fill="#E52601" fill-rule="evenodd"/><rect x="1751.5" y="760.5" width="169" height="59.0001" stroke="#FCF600" stroke-width="6.875" stroke-miterlimit="8" fill="#FCF600"/><text font-family="Times New Roman,Times New Roman_MSFontService,sans-serif" font-weight="400" font-size="55" transform="matrix(1 0 0 1 1813.14 810)">S5</text><rect x="2687.5" y="882.5" width="169" height="59.0001" stroke="#CDEB8B" stroke-width="6.875" stroke-miterlimit="8" fill="#CDEB8B"/><text font-family="Times New Roman,Times New Roman_MSFontService,sans-serif" font-weight="400" font-size="55" transform="matrix(1 0 0 1 2749.71 931)">S8</text><rect x="2200.5" y="766.5" width="169" height="58.0001" stroke="#FCF600" stroke-width="6.875" stroke-miterlimit="8" fill="#FCF600"/><text font-family="Times New Roman,Times New Roman_MSFontService,sans-serif" font-weight="400" font-size="55" transform="matrix(1 0 0 1 2262.39 815)">S7</text><rect x="2684.5" y="768.5" width="169" height="58.9998" stroke="#FCF600" stroke-width="6.875" stroke-miterlimit="8" fill="#FCF600"/><text font-family="Times New Roman,Times New Roman_MSFontService,sans-serif" font-weight="400" font-size="55" transform="matrix(1 0 0 1 2746.81 818)">S8</text><rect x="2496.5" y="767.5" width="169" height="58.9998" stroke="#FCF600" stroke-width="6.875" stroke-miterlimit="8" fill="#FCF600"/><text font-family="Times New Roman,Times New Roman_MSFontService,sans-serif" font-weight="400" font-size="55" transform="matrix(1 0 0 1 2558.61 816)">S6</text><rect x="2200.5" y="882.5" width="169" height="59.0001" stroke="#CCE5FF" stroke-width="6.875" stroke-miterlimit="8" fill="#CCE5FF"/><text font-family="Times New Roman,Times New Roman_MSFontService,sans-serif" font-weight="400" font-size="55" transform="matrix(1 0 0 1 2262.27 931)">S7</text><rect x="2687.5" y="968.5" width="169" height="59.0002" stroke="#CCE5FF" stroke-width="6.875" stroke-miterlimit="8" fill="#CCE5FF"/><text font-family="Times New Roman,Times New Roman_MSFontService,sans-serif" font-weight="400" font-size="55" transform="matrix(1 0 0 1 2749.71 1017)">S8</text><rect x="2496.5" y="882.5" width="169" height="59.0001" stroke="#CDEB8B" stroke-width="6.875" stroke-miterlimit="8" fill="#CDEB8B"/><text font-family="Times New Roman,Times New Roman_MSFontService,sans-serif" font-weight="400" font-size="55" transform="matrix(1 0 0 1 2558.61 931)">S6</text><path d="M1920.5 790.5 2200.85 790.5" stroke="#FCF600" stroke-width="6.875" stroke-miterlimit="8" fill="#E52601" fill-rule="evenodd"/><path d="M0 0 0.591503 270.5" stroke="#FCF600" stroke-width="6.875" stroke-miterlimit="8" fill="#E52601" fill-rule="evenodd" transform="matrix(-1 0 0 1 1836.09 819.5)"/><path d="M0 0 48.7638 0.000360892" stroke="#FCF600" stroke-width="6.875" stroke-miterlimit="8" fill="#E52601" fill-rule="evenodd" transform="matrix(-1 0 0 1 2481.26 1398.5)"/><path d="M1920.5 790.5 2263.77 859.258" stroke="#FCF600" stroke-width="6.875" stroke-miterlimit="8" fill="#E52601" fill-rule="evenodd"/><path d="M2263.5 859.5 2581.24 859.5" stroke="#FCF600" stroke-width="6.875" stroke-miterlimit="8" fill="#E52601" fill-rule="evenodd"/><path d="M0 0 0.000360892 41.4936" stroke="#FCF600" stroke-width="6.875" stroke-miterlimit="8" fill="#E52601" fill-rule="evenodd" transform="matrix(1 0 0 -1 2581.5 860.994)"/><path d="M2960.33 1056.82 2853.5 798.5" fill="#E52601" fill-rule="evenodd"/><path d="M2948.4 1036.96 2850.32 799.814 2856.68 797.186 2954.75 1034.33ZM2962.53 1026.16 2960.33 1056.82 2937.12 1036.67Z" fill="#FCF600"/><path d="M2369.5 795.5 2460.68 841.384" stroke="#FCF600" stroke-width="6.875" stroke-miterlimit="8" fill="#E52601" fill-rule="evenodd"/><path d="M2453.5 840.5 2769.24 840.5" stroke="#FCF600" stroke-width="6.875" stroke-miterlimit="8" fill="#E52601" fill-rule="evenodd"/><path d="M2769.5 827.5 2770.4 843.021" stroke="#FCF600" stroke-width="6.875" stroke-miterlimit="8" fill="#E52601" fill-rule="evenodd"/><path d="M0 0 59.1456 253.323" stroke="#CDEB8B" stroke-width="6.875" stroke-miterlimit="8" fill="#E52601" fill-rule="evenodd" transform="matrix(1 0 0 -1 2437.5 1164.82)"/><path d="M2960.44 1056.28 2856.5 911.5" fill="#E52601" fill-rule="evenodd"/><path d="M2944.28 1039.67 2853.71 913.505 2859.29 909.495 2949.86 1035.66ZM2955.57 1025.92 2960.44 1056.28 2933.23 1041.96Z" fill="#CDEB8B"/><path d="M2672.53 918.635 2665.5 911.5" stroke="#CDEB8B" stroke-width="6.875" stroke-miterlimit="8" fill="#E52601" fill-rule="evenodd"/><path d="M1835.5 1092.5 2487.71 1095.39" stroke="#FCF600" stroke-width="6.875" stroke-miterlimit="8" fill="#E52601" fill-rule="evenodd"/><path d="M0 0 6.23622 299.706" stroke="#FCF600" stroke-width="6.875" stroke-miterlimit="8" fill="#E52601" fill-rule="evenodd" transform="matrix(-1 0 0 1 2487.74 1097.5)"/><path d="M2369.5 911.5 2688.04 997.473" stroke="#CCE5FF" stroke-width="6.875" stroke-miterlimit="8" fill="#E52601" fill-rule="evenodd"/><path d="M2856.5 997.5 2960.44 1056.3" fill="#E52601" fill-rule="evenodd"/><path d="M2858.19 994.508 2942.18 1042.03 2938.8 1048.01 2854.81 1000.49ZM2943.27 1030.8 2960.44 1056.3 2929.73 1054.73Z" fill="#CCE5FF"/><path d="M2528.82 1243.83 2234.5 1241.5" stroke="#CCE5FF" stroke-width="6.875" stroke-miterlimit="8" fill="#E52601" fill-rule="evenodd"/><path d="M2284.5 941.5 2284.79 1063.14" stroke="#CCE5FF" stroke-width="6.875" stroke-miterlimit="8" fill="#E52601" fill-rule="evenodd"/><path d="M2523.5 1062.5 2523.5 1244.39" stroke="#CCE5FF" stroke-width="6.875" stroke-miterlimit="8" fill="#E52601" fill-rule="evenodd"/><path d="M2523.42 1066.5 2282.5 1066.5" stroke="#1CA1E2" stroke-width="6.875" stroke-miterlimit="8" fill="#E52601" fill-rule="evenodd"/><path d="M2066.82 1242.83 1772.5 1240.5" stroke="#CCE5FF" stroke-width="6.875" stroke-miterlimit="8" fill="#E52601" fill-rule="evenodd"/><path d="M2523.42 1066.5 2282.5 1066.5" stroke="#CCE5FF" stroke-width="6.875" stroke-miterlimit="8" fill="#E52601" fill-rule="evenodd"/><rect x="1134.5" y="1803.5" width="2138" height="475" stroke="#000000" stroke-width="6.875" stroke-miterlimit="8" fill="#FFFFFF"/><text font-family="Times New Roman,Times New Roman_MSFontService,sans-serif" font-weight="400" font-size="55" transform="matrix(1 0 0 1 2396.97 1884)">S: Process step in material flow</text><rect x="1189.5" y="1920.5" width="130" height="65" stroke="#FCF600" stroke-width="6.875" stroke-miterlimit="8" fill="#FCF600"/><rect x="1189.5" y="2008.5" width="130" height="65" stroke="#FAD9D5" stroke-width="6.875" stroke-miterlimit="8" fill="#FAD9D5"/><rect x="1189.5" y="2096.5" width="130" height="65" stroke="#CCE5FF" stroke-width="6.875" stroke-miterlimit="8" fill="#CCE5FF"/><text font-family="Times New Roman,Times New Roman_MSFontService,sans-serif" font-weight="400" font-size="55" transform="matrix(1 0 0 1 1356.28 1972)">Hail damage (HD)</text><text font-family="Times New Roman,Times New Roman_MSFontService,sans-serif" font-weight="400" font-size="55" transform="matrix(1 0 0 1 1352.39 2060)">Total loss (TL)</text><text font-family="Times New Roman,Times New Roman_MSFontService,sans-serif" font-weight="400" font-size="55" transform="matrix(1 0 0 1 1352.39 2148)">Rear damage (RD)</text><rect x="2397.5" y="1920.5" width="130" height="65" stroke="#7F7F7F" stroke-width="6.875" stroke-miterlimit="8" fill="#7F7F7F"/><text font-family="Times New Roman,Times New Roman_MSFontService,sans-serif" font-weight="400" font-size="55" transform="matrix(1 0 0 1 2563.77 1972)">Material flow start and end</text><rect x="2395.5" y="2008.5" width="130" height="65" stroke="#000000" stroke-width="6.875" stroke-miterlimit="8" fill="none"/><text font-family="Times New Roman,Times New Roman_MSFontService,sans-serif" font-weight="400" font-size="55" transform="matrix(1 0 0 1 2570.35 2060)">Bu</text><text font-family="Times New Roman,Times New Roman_MSFontService,sans-serif" font-weight="400" font-size="55" transform="matrix(1 0 0 1 2634.52 2060)">ffer</text><text font-family="Times New Roman,Times New Roman_MSFontService,sans-serif" font-weight="400" font-size="55" transform="matrix(1 0 0 1 2726.92 2060)">(B)</text><rect x="2395.5" y="2096.5" width="130" height="65" stroke="#E8E8E8" stroke-width="6.875" stroke-miterlimit="8" fill="#E8E8E8"/><text font-family="Times New Roman,Times New Roman_MSFontService,sans-serif" font-weight="400" font-size="55" transform="matrix(1 0 0 1 2563.77 2148)">Works</text><text font-family="Times New Roman,Times New Roman_MSFontService,sans-serif" font-weight="400" font-size="55" transform="matrix(1 0 0 1 2706.04 2148)">tation</text><text font-family="Times New Roman,Times New Roman_MSFontService,sans-serif" font-weight="400" font-size="55" transform="matrix(1 0 0 1 2845.83 2148)">(WS)</text><text font-family="Times New Roman,Times New Roman_MSFontService,sans-serif" font-weight="400" font-size="55" transform="matrix(1 0 0 1 1356.28 1884)">Material flow direction</text><rect x="1189.5" y="2185.5" width="130" height="64" stroke="#CDEB8B" stroke-width="6.875" stroke-miterlimit="8" fill="#CDEB8B"/><text font-family="Times New Roman,Times New Roman_MSFontService,sans-serif" font-weight="400" font-size="55" transform="matrix(1 0 0 1 1352.39 2237)">Defective shock absorbers (SA)</text><path d="M1319.42 1836.5 1189.5 1836.5" fill="#E3C912" fill-rule="evenodd"/><path d="M1296.5 1839.94 1189.5 1839.94 1189.5 1833.06 1296.5 1833.06ZM1291.92 1822.75 1319.42 1836.5 1291.92 1850.25Z" fill="#FCF600"/><path d="M0 0 129.921 1.09459" fill="#E3C912" fill-rule="evenodd" transform="matrix(-1 0 0 1 1319.42 1854.5)"/><path d="M22.9448-3.24431 129.95-2.34279 129.892 4.53196 22.8869 3.63044ZM27.3832 13.9812 0 0 27.6149-13.5178Z" fill="#FAD9D5" transform="matrix(-1 0 0 1 1319.42 1854.5)"/><path d="M0 0 129.921 1.09459" fill="#E3C912" fill-rule="evenodd" transform="matrix(-1 0 0 1 1319.42 1874.5)"/><path d="M22.9448-3.24431 129.95-2.34279 129.892 4.53196 22.8869 3.63044ZM27.3832 13.9812 0 0 27.6149-13.5178Z" fill="#CCE5FF" transform="matrix(-1 0 0 1 1319.42 1874.5)"/><path d="M0 0 129.921 0.000360892" fill="#E3C912" fill-rule="evenodd" transform="matrix(-1 0 0 1 1319.42 1894.5)"/><path d="M22.9167-3.43744 129.921-3.43714 129.921 3.43786 22.9167 3.43756ZM27.5 13.7501 0 0 27.5-13.7499Z" fill="#CDEB8B" transform="matrix(-1 0 0 1 1319.42 1894.5)"/><path d="M2665.5 796.5 2684.81 797.749" stroke="#FCF600" stroke-width="6.875" stroke-miterlimit="8" fill="#E52601" fill-rule="evenodd"/><path d="M0 0 33.1364 0.000360892" stroke="#CDEB8B" stroke-width="6.875" stroke-miterlimit="8" fill="#E52601" fill-rule="evenodd" transform="matrix(-1 0 0 1 2268.64 1165.5)"/></g></svg>