<svg width="2154" height="1565" xmlns="http://www.w3.org/2000/svg" xmlns:xlink="http://www.w3.org/1999/xlink" xml:space="preserve" overflow="hidden"><g transform="translate(-1129 -270)"><rect x="1132.5" y="398.5" width="2139" height="1088" stroke="#000000" stroke-width="6.875" stroke-miterlimit="8" fill="#FFFFFF"/><path d="M1942.5 798.5 2350.84 1083.66" stroke="#FCF600" stroke-width="6.875" stroke-miterlimit="8" fill="#E3C912" fill-rule="evenodd"/><rect x="1132.5" y="273.5" width="2139" height="104" stroke="#000000" stroke-width="6.875" stroke-miterlimit="8" fill="#E8E8E8"/><text font-family="Times New Roman,Times New Roman_MSFontService,sans-serif" font-weight="700" font-size="55" transform="matrix(1 0 0 1 1431.87 345)">Scenario #3: </text><text font-family="Times New Roman,Times New Roman_MSFontService,sans-serif" font-weight="400" font-size="55" transform="matrix(1 0 0 1 1737.81 345)">Line </text><text font-family="Times New Roman,Times New Roman_MSFontService,sans-serif" font-weight="400" font-size="55" transform="matrix(1 0 0 1 1852.97 345)">–</text><text font-family="Times New Roman,Times New Roman_MSFontService,sans-serif" font-weight="400" font-size="55" transform="matrix(1 0 0 1 1894.22 345)">5 Workstations </text><text font-family="Times New Roman,Times New Roman_MSFontService,sans-serif" font-weight="400" font-size="55" transform="matrix(1 0 0 1 2237.74 345)">–</text><text font-family="Times New Roman,Times New Roman_MSFontService,sans-serif" font-weight="400" font-size="55" transform="matrix(1 0 0 1 2278.99 345)">Division of Labor </text><text font-family="Times New Roman,Times New Roman_MSFontService,sans-serif" font-weight="400" font-size="55" transform="matrix(1 0 0 1 2687.48 345)">–</text><text font-family="Times New Roman,Times New Roman_MSFontService,sans-serif" font-weight="400" font-size="55" transform="matrix(1 0 0 1 2725.7 345)">Automated </text><rect x="1751.5" y="428.5" width="219" height="312" stroke="#E8E8E8" stroke-width="6.875" stroke-miterlimit="8" fill="#E8E8E8"/><text font-family="Times New Roman,Times New Roman_MSFontService,sans-serif" font-weight="400" font-size="55" transform="matrix(1 0 0 1 1796.06 604)">WS</text><text font-family="Times New Roman,Times New Roman_MSFontService,sans-serif" font-weight="400" font-size="55" transform="matrix(1 0 0 1 1878.56 604)">-</text><text font-family="Times New Roman,Times New Roman_MSFontService,sans-serif" font-weight="400" font-size="55" transform="matrix(1 0 0 1 1896.89 604)">3</text><rect x="2200.5" y="428.5" width="219" height="312" stroke="#E8E8E8" stroke-width="6.875" stroke-miterlimit="8" fill="#E8E8E8"/><text font-family="Times New Roman,Times New Roman_MSFontService,sans-serif" font-weight="400" font-size="55" transform="matrix(1 0 0 1 2231.56 604)">WS</text><text font-family="Times New Roman,Times New Roman_MSFontService,sans-serif" font-weight="400" font-size="55" transform="matrix(1 0 0 1 2314.06 604)">-</text><text font-family="Times New Roman,Times New Roman_MSFontService,sans-serif" font-weight="400" font-size="55" transform="matrix(1 0 0 1 2332.39 604)">04</text><rect x="1746.5" y="1135.5" width="219" height="312" stroke="#E8E8E8" stroke-width="6.875" stroke-miterlimit="8" fill="#E8E8E8"/><text font-family="Times New Roman,Times New Roman_MSFontService,sans-serif" font-weight="400" font-size="55" transform="matrix(1 0 0 1 1791.27 1311)">WS</text><text font-family="Times New Roman,Times New Roman_MSFontService,sans-serif" font-weight="400" font-size="55" transform="matrix(1 0 0 1 1873.77 1311)">-</text><text font-family="Times New Roman,Times New Roman_MSFontService,sans-serif" font-weight="400" font-size="55" transform="matrix(1 0 0 1 1892.11 1311)">1</text><rect x="1603.5" y="428.5" width="126" height="312" stroke="#000000" stroke-width="6.875" stroke-miterlimit="8" fill="#FFFFFF"/><text font-family="Times New Roman,Times New Roman_MSFontService,sans-serif" font-weight="400" font-size="55" transform="matrix(1 0 0 1 1611.17 604)">B</text><text font-family="Times New Roman,Times New Roman_MSFontService,sans-serif" font-weight="400" font-size="55" transform="matrix(1 0 0 1 1647.84 604)">-</text><text font-family="Times New Roman,Times New Roman_MSFontService,sans-serif" font-weight="400" font-size="55" transform="matrix(1 0 0 1 1666.17 604)">03</text><rect x="2064.5" y="428.5" width="125" height="312" stroke="#000000" stroke-width="6.875" stroke-miterlimit="8" fill="#FFFFFF"/><text font-family="Times New Roman,Times New Roman_MSFontService,sans-serif" font-weight="400" font-size="55" transform="matrix(1 0 0 1 2080.48 604)">B04</text><rect x="1603.5" y="1135.5" width="126" height="312" stroke="#000000" stroke-width="6.875" stroke-miterlimit="8" fill="#FFFFFF"/><text font-family="Times New Roman,Times New Roman_MSFontService,sans-serif" font-weight="400" font-size="55" transform="matrix(1 0 0 1 1611.17 1311)">B</text><text font-family="Times New Roman,Times New Roman_MSFontService,sans-serif" font-weight="400" font-size="55" transform="matrix(1 0 0 1 1647.84 1311)">-</text><text font-family="Times New Roman,Times New Roman_MSFontService,sans-serif" font-weight="400" font-size="55" transform="matrix(1 0 0 1 1666.17 1311)">01</text><rect x="1180.5" y="808.5" width="260" height="306" stroke="#7F7F7F" stroke-width="6.875" stroke-miterlimit="8" fill="#7F7F7F"/><text font-family="Times New Roman,Times New Roman_MSFontService,sans-serif" font-weight="400" font-size="55" transform="matrix(1 0 0 1 1206.23 981)">Goods</text><text font-family="Times New Roman,Times New Roman_MSFontService,sans-serif" font-weight="400" font-size="55" transform="matrix(1 0 0 1 1349.46 981)">-</text><text font-family="Times New Roman,Times New Roman_MSFontService,sans-serif" font-weight="400" font-size="55" transform="matrix(1 0 0 1 1367.79 981)">In</text><rect x="2934.5" y="808.5" width="273" height="302" stroke="#7F7F7F" stroke-width="6.875" stroke-miterlimit="8" fill="#7F7F7F"/><text font-family="Times New Roman,Times New Roman_MSFontService,sans-serif" font-weight="400" font-size="55" transform="matrix(1 0 0 1 2948.61 979)">Warehouse</text><rect x="2206.5" y="1135.5" width="219" height="312" stroke="#E8E8E8" stroke-width="6.875" stroke-miterlimit="8" fill="#E8E8E8"/><text font-family="Times New Roman,Times New Roman_MSFontService,sans-serif" font-weight="400" font-size="55" transform="matrix(1 0 0 1 2237.67 1311)">WS</text><text font-family="Times New Roman,Times New Roman_MSFontService,sans-serif" font-weight="400" font-size="55" transform="matrix(1 0 0 1 2320.17 1311)">-</text><text font-family="Times New Roman,Times New Roman_MSFontService,sans-serif" font-weight="400" font-size="55" transform="matrix(1 0 0 1 2338.5 1311)">02</text><rect x="2064.5" y="1135.5" width="125" height="312" stroke="#000000" stroke-width="6.875" stroke-miterlimit="8" fill="#FFFFFF"/><text font-family="Times New Roman,Times New Roman_MSFontService,sans-serif" font-weight="400" font-size="55" transform="matrix(1 0 0 1 2071.32 1311)">B</text><text font-family="Times New Roman,Times New Roman_MSFontService,sans-serif" font-weight="400" font-size="55" transform="matrix(1 0 0 1 2107.98 1311)">-</text><text font-family="Times New Roman,Times New Roman_MSFontService,sans-serif" font-weight="400" font-size="55" transform="matrix(1 0 0 1 2126.32 1311)">02</text><rect x="2630.5" y="426.5" width="219" height="312" stroke="#E8E8E8" stroke-width="6.875" stroke-miterlimit="8" fill="#E8E8E8"/><text font-family="Times New Roman,Times New Roman_MSFontService,sans-serif" font-weight="400" font-size="55" transform="matrix(1 0 0 1 2661.59 602)">WS</text><text font-family="Times New Roman,Times New Roman_MSFontService,sans-serif" font-weight="400" font-size="55" transform="matrix(1 0 0 1 2744.09 602)">-</text><text font-family="Times New Roman,Times New Roman_MSFontService,sans-serif" font-weight="400" font-size="55" transform="matrix(1 0 0 1 2762.43 602)">05</text><rect x="2494.5" y="426.5" width="125" height="312" stroke="#000000" stroke-width="6.875" stroke-miterlimit="8" fill="#FFFFFF"/><text font-family="Times New Roman,Times New Roman_MSFontService,sans-serif" font-weight="400" font-size="55" transform="matrix(1 0 0 1 2501.35 602)">B</text><text font-family="Times New Roman,Times New Roman_MSFontService,sans-serif" font-weight="400" font-size="55" transform="matrix(1 0 0 1 2538.02 602)">-</text><text font-family="Times New Roman,Times New Roman_MSFontService,sans-serif" font-weight="400" font-size="55" transform="matrix(1 0 0 1 2556.35 602)">05</text><rect x="1748.5" y="1048.5" width="77.9996" height="65" stroke="#FCF600" stroke-width="6.875" stroke-miterlimit="8" fill="#FCF600"/><rect x="1838.5" y="1048.5" width="78" height="65" stroke="#FCF600" stroke-width="6.875" stroke-miterlimit="8" fill="#FCF600"/><rect x="2207.5" y="1048.5" width="78" height="65" stroke="#FCF600" stroke-width="6.875" stroke-miterlimit="8" fill="#FCF600"/><rect x="2297.5" y="1048.5" width="78" height="65" stroke="#FCF600" stroke-width="6.875" stroke-miterlimit="8" fill="#FCF600"/><path d="M1751.4 1084.6 1440.5 941.5" stroke="#FCF600" stroke-width="6.875" stroke-miterlimit="8" fill="#E3C912" fill-rule="evenodd"/><path d="M1916.5 1081.5 2211.29 1081.5" stroke="#FCF600" stroke-width="6.875" stroke-miterlimit="8" fill="#E3C912" fill-rule="evenodd"/><path d="M1815.5 1083.5 1841.48 1083.5" stroke="#FCF600" stroke-width="6.875" stroke-miterlimit="8" fill="#E3C912" fill-rule="evenodd"/><rect x="1892.5" y="758.5" width="78" height="64.9999" stroke="#FCF600" stroke-width="6.875" stroke-miterlimit="8" fill="#FCF600"/><rect x="2634.5" y="837.5" width="78" height="65" stroke="#FCF600" stroke-width="6.875" stroke-miterlimit="8" fill="#FCF600"/><rect x="2632.5" y="758.5" width="77" height="64.9999" stroke="#FCF600" stroke-width="6.875" stroke-miterlimit="8" fill="#FCF600"/><rect x="2200.5" y="758.5" width="78" height="64.9999" stroke="#FCF600" stroke-width="6.875" stroke-miterlimit="8" fill="#FCF600"/><path d="M2278.5 1079.5 2304.48 1079.5" stroke="#FCF600" stroke-width="6.875" stroke-miterlimit="8" fill="#E3C912" fill-rule="evenodd"/><path d="M1954.5 790.5 2210.54 792.975" stroke="#FCF600" stroke-width="6.875" stroke-miterlimit="8" fill="#E3C912" fill-rule="evenodd"/><path d="M1960.5 792.5 2254.98 869.904" stroke="#FCF600" stroke-width="6.875" stroke-miterlimit="8" fill="#E3C912" fill-rule="evenodd"/><path d="M2278.5 792.5 2638.67 792.5" stroke="#FCF600" stroke-width="6.875" stroke-miterlimit="8" fill="#E3C912" fill-rule="evenodd"/><path d="M2255.5 870.5 2634.86 870.5" stroke="#FCF600" stroke-width="6.875" stroke-miterlimit="8" fill="#E3C912" fill-rule="evenodd"/><path d="M2934.64 958.856 2712.5 792.5" fill="#E3C912" fill-rule="evenodd"/><path d="M2914.24 947.871 2710.44 795.251 2714.56 789.748 2918.36 942.368ZM2920.87 931.366 2934.64 958.856 2904.39 953.378Z" fill="#FCF600"/><path d="M2934.07 959.452 2709.5 870.5" fill="#E3C912" fill-rule="evenodd"/><path d="M2911.5 954.209 2708.23 873.696 2710.77 867.304 2914.03 947.817ZM2913.57 936.542 2934.07 959.452 2903.44 962.109Z" fill="#FCF600"/><rect x="1134.5" y="1504.5" width="2138" height="327" stroke="#000000" stroke-width="6.875" stroke-miterlimit="8" fill="#FFFFFF"/><text font-family="Times New Roman,Times New Roman_MSFontService,sans-serif" font-weight="400" font-size="55" transform="matrix(1 0 0 1 2396.97 1586)">S: Process step in material flow</text><rect x="1189.5" y="1621.5" width="130" height="65" stroke="#FCF600" stroke-width="6.875" stroke-miterlimit="8" fill="#FCF600"/><rect x="1189.5" y="1708.5" width="130" height="65" stroke="#E8E8E8" stroke-width="6.875" stroke-miterlimit="8" fill="#E8E8E8"/><text font-family="Times New Roman,Times New Roman_MSFontService,sans-serif" font-weight="400" font-size="55" transform="matrix(1 0 0 1 1356.28 1673)">Hail damage </text><text font-family="Times New Roman,Times New Roman_MSFontService,sans-serif" font-weight="400" font-size="55" transform="matrix(1 0 0 1 1650.75 1673)">(</text><text font-family="Times New Roman,Times New Roman_MSFontService,sans-serif" font-weight="400" font-size="55" transform="matrix(1 0 0 1 1669.09 1673)">HD</text><text font-family="Times New Roman,Times New Roman_MSFontService,sans-serif" font-weight="400" font-size="55" transform="matrix(1 0 0 1 1748.15 1673)">)</text><text font-family="Times New Roman,Times New Roman_MSFontService,sans-serif" font-weight="400" font-size="55" transform="matrix(1 0 0 1 1352.39 1760)">Workstation (WS)</text><rect x="2397.5" y="1621.5" width="130" height="65" stroke="#7F7F7F" stroke-width="6.875" stroke-miterlimit="8" fill="#7F7F7F"/><text font-family="Times New Roman,Times New Roman_MSFontService,sans-serif" font-weight="400" font-size="55" transform="matrix(1 0 0 1 2563.77 1673)">Material flow start and end</text><rect x="2395.5" y="1708.5" width="130" height="65" stroke="#000000" stroke-width="6.875" stroke-miterlimit="8" fill="none"/><text font-family="Times New Roman,Times New Roman_MSFontService,sans-serif" font-weight="400" font-size="55" transform="matrix(1 0 0 1 2570.35 1760)">Bu</text><text font-family="Times New Roman,Times New Roman_MSFontService,sans-serif" font-weight="400" font-size="55" transform="matrix(1 0 0 1 2634.52 1760)">ffer</text><text font-family="Times New Roman,Times New Roman_MSFontService,sans-serif" font-weight="400" font-size="55" transform="matrix(1 0 0 1 2726.92 1760)">(B)</text><path d="M0 0 129.921 1.09459" fill="#E3C912" fill-rule="evenodd" transform="matrix(-1 0 0 1 1319.42 1566.5)"/><path d="M22.9448-3.24431 129.95-2.34279 129.892 4.53196 22.8869 3.63044ZM27.3832 13.9812 0 0 27.6149-13.5178Z" fill="#FCF600" transform="matrix(-1 0 0 1 1319.42 1566.5)"/><text font-family="Times New Roman,Times New Roman_MSFontService,sans-serif" font-weight="400" font-size="55" transform="matrix(1 0 0 1 1356.28 1586)">Material flow direction</text><text font-family="Times New Roman,Times New Roman_MSFontService,sans-serif" font-weight="400" font-size="55" transform="matrix(1 0 0 1 1902.48 814)">S5</text><text font-family="Times New Roman,Times New Roman_MSFontService,sans-serif" font-weight="400" font-size="55" transform="matrix(1 0 0 1 2210.79 812)">S7</text><text font-family="Times New Roman,Times New Roman_MSFontService,sans-serif" font-weight="400" font-size="55" transform="matrix(1 0 0 1 2642.32 812)">S8</text><text font-family="Times New Roman,Times New Roman_MSFontService,sans-serif" font-weight="400" font-size="55" transform="matrix(1 0 0 1 2642.32 888)">S6</text><text font-family="Times New Roman,Times New Roman_MSFontService,sans-serif" font-weight="400" font-size="55" transform="matrix(1 0 0 1 2307.83 1103)">S4</text><text font-family="Times New Roman,Times New Roman_MSFontService,sans-serif" font-weight="400" font-size="55" transform="matrix(1 0 0 1 2215.13 1099)">S3</text><text font-family="Times New Roman,Times New Roman_MSFontService,sans-serif" font-weight="400" font-size="55" transform="matrix(1 0 0 1 1848.97 1103)">S2</text><text font-family="Times New Roman,Times New Roman_MSFontService,sans-serif" font-weight="400" font-size="55" transform="matrix(1 0 0 1 1756.27 1099)">S1</text></g></svg>