<svg width="2154" height="1604" xmlns="http://www.w3.org/2000/svg" xmlns:xlink="http://www.w3.org/1999/xlink" xml:space="preserve" overflow="hidden"><g transform="translate(-1129 -270)"><rect x="1132.5" y="273.5" width="2139" height="104" stroke="#000000" stroke-width="6.875" stroke-miterlimit="8" fill="#E8E8E8"/><text font-family="Times New Roman,Times New Roman_MSFontService,sans-serif" font-weight="700" font-size="55" transform="matrix(1 0 0 1 1376.42 345)">Scenario #2: </text><text font-family="Times New Roman,Times New Roman_MSFontService,sans-serif" font-weight="400" font-size="55" transform="matrix(1 0 0 1 1682.35 345)">Workshop </text><text font-family="Times New Roman,Times New Roman_MSFontService,sans-serif" font-weight="400" font-size="55" transform="matrix(1 0 0 1 1920.87 345)">–</text><text font-family="Times New Roman,Times New Roman_MSFontService,sans-serif" font-weight="400" font-size="55" transform="matrix(1 0 0 1 1962.12 345)">4 Workstations </text><text font-family="Times New Roman,Times New Roman_MSFontService,sans-serif" font-weight="400" font-size="55" transform="matrix(1 0 0 1 2305.64 345)">–</text><text font-family="Times New Roman,Times New Roman_MSFontService,sans-serif" font-weight="400" font-size="55" transform="matrix(1 0 0 1 2346.89 345)">D</text><text font-family="Times New Roman,Times New Roman_MSFontService,sans-serif" font-weight="400" font-size="55" transform="matrix(1 0 0 1 2386.42 345)">ivision</text><text font-family="Times New Roman,Times New Roman_MSFontService,sans-serif" font-weight="400" font-size="55" transform="matrix(1 0 0 1 2550.28 345)">of Quantity </text><text font-family="Times New Roman,Times New Roman_MSFontService,sans-serif" font-weight="400" font-size="55" transform="matrix(1 0 0 1 2816.68 345)">–</text><text font-family="Times New Roman,Times New Roman_MSFontService,sans-serif" font-weight="400" font-size="55" transform="matrix(1 0 0 1 2857.93 345)">Manual  </text><rect x="1132.5" y="398.5" width="2139" height="1125" stroke="#000000" stroke-width="6.875" stroke-miterlimit="8" fill="#FFFFFF"/><rect x="1751.5" y="451.5" width="219" height="312" stroke="#E8E8E8" stroke-width="6.875" stroke-miterlimit="8" fill="#E8E8E8"/><text font-family="Times New Roman,Times New Roman_MSFontService,sans-serif" font-weight="400" font-size="55" transform="matrix(1 0 0 1 1782.31 627)">WS</text><text font-family="Times New Roman,Times New Roman_MSFontService,sans-serif" font-weight="400" font-size="55" transform="matrix(1 0 0 1 1864.81 627)">-</text><text font-family="Times New Roman,Times New Roman_MSFontService,sans-serif" font-weight="400" font-size="55" transform="matrix(1 0 0 1 1883.14 627)">01</text><rect x="2521.5" y="451.5" width="219" height="312" stroke="#E8E8E8" stroke-width="6.875" stroke-miterlimit="8" fill="#E8E8E8"/><text font-family="Times New Roman,Times New Roman_MSFontService,sans-serif" font-weight="400" font-size="55" transform="matrix(1 0 0 1 2552.33 627)">WS</text><text font-family="Times New Roman,Times New Roman_MSFontService,sans-serif" font-weight="400" font-size="55" transform="matrix(1 0 0 1 2634.83 627)">-</text><text font-family="Times New Roman,Times New Roman_MSFontService,sans-serif" font-weight="400" font-size="55" transform="matrix(1 0 0 1 2653.17 627)">02</text><rect x="1746.5" y="1158.5" width="219" height="312" stroke="#E8E8E8" stroke-width="6.875" stroke-miterlimit="8" fill="#E8E8E8"/><text font-family="Times New Roman,Times New Roman_MSFontService,sans-serif" font-weight="400" font-size="55" transform="matrix(1 0 0 1 1777.52 1334)">WS</text><text font-family="Times New Roman,Times New Roman_MSFontService,sans-serif" font-weight="400" font-size="55" transform="matrix(1 0 0 1 1860.02 1334)">-</text><text font-family="Times New Roman,Times New Roman_MSFontService,sans-serif" font-weight="400" font-size="55" transform="matrix(1 0 0 1 1878.36 1334)">03</text><rect x="1603.5" y="451.5" width="126" height="312" stroke="#000000" stroke-width="6.875" stroke-miterlimit="8" fill="#FFFFFF"/><text font-family="Times New Roman,Times New Roman_MSFontService,sans-serif" font-weight="400" font-size="55" transform="matrix(1 0 0 1 1611.17 627)">B</text><text font-family="Times New Roman,Times New Roman_MSFontService,sans-serif" font-weight="400" font-size="55" transform="matrix(1 0 0 1 1647.84 627)">-</text><text font-family="Times New Roman,Times New Roman_MSFontService,sans-serif" font-weight="400" font-size="55" transform="matrix(1 0 0 1 1666.17 627)">01</text><rect x="2384.5" y="451.5" width="126" height="312" stroke="#000000" stroke-width="6.875" stroke-miterlimit="8" fill="#FFFFFF"/><text font-family="Times New Roman,Times New Roman_MSFontService,sans-serif" font-weight="400" font-size="55" transform="matrix(1 0 0 1 2392.09 627)">B</text><text font-family="Times New Roman,Times New Roman_MSFontService,sans-serif" font-weight="400" font-size="55" transform="matrix(1 0 0 1 2428.76 627)">-</text><text font-family="Times New Roman,Times New Roman_MSFontService,sans-serif" font-weight="400" font-size="55" transform="matrix(1 0 0 1 2447.09 627)">02</text><rect x="1603.5" y="1158.5" width="126" height="312" stroke="#000000" stroke-width="6.875" stroke-miterlimit="8" fill="#FFFFFF"/><text font-family="Times New Roman,Times New Roman_MSFontService,sans-serif" font-weight="400" font-size="55" transform="matrix(1 0 0 1 1611.17 1334)">B</text><text font-family="Times New Roman,Times New Roman_MSFontService,sans-serif" font-weight="400" font-size="55" transform="matrix(1 0 0 1 1647.84 1334)">-</text><text font-family="Times New Roman,Times New Roman_MSFontService,sans-serif" font-weight="400" font-size="55" transform="matrix(1 0 0 1 1666.17 1334)">02</text><rect x="1180.5" y="831.5" width="260" height="306" stroke="#7F7F7F" stroke-width="6.875" stroke-miterlimit="8" fill="#7F7F7F"/><text font-family="Times New Roman,Times New Roman_MSFontService,sans-serif" font-weight="400" font-size="55" transform="matrix(1 0 0 1 1206.23 1004)">Goods</text><text font-family="Times New Roman,Times New Roman_MSFontService,sans-serif" font-weight="400" font-size="55" transform="matrix(1 0 0 1 1349.46 1004)">-</text><text font-family="Times New Roman,Times New Roman_MSFontService,sans-serif" font-weight="400" font-size="55" transform="matrix(1 0 0 1 1367.79 1004)">In</text><rect x="2937.5" y="801.5" width="273" height="302" stroke="#7F7F7F" stroke-width="6.875" stroke-miterlimit="8" fill="#7F7F7F"/><text font-family="Times New Roman,Times New Roman_MSFontService,sans-serif" font-weight="400" font-size="55" transform="matrix(1 0 0 1 2951.53 972)">Warehouse</text><rect x="2521.5" y="1158.5" width="219" height="312" stroke="#E8E8E8" stroke-width="6.875" stroke-miterlimit="8" fill="#E8E8E8"/><text font-family="Times New Roman,Times New Roman_MSFontService,sans-serif" font-weight="400" font-size="55" transform="matrix(1 0 0 1 2552.12 1334)">WS</text><text font-family="Times New Roman,Times New Roman_MSFontService,sans-serif" font-weight="400" font-size="55" transform="matrix(1 0 0 1 2634.62 1334)">-</text><text font-family="Times New Roman,Times New Roman_MSFontService,sans-serif" font-weight="400" font-size="55" transform="matrix(1 0 0 1 2652.95 1334)">04</text><rect x="2378.5" y="1158.5" width="126" height="312" stroke="#000000" stroke-width="6.875" stroke-miterlimit="8" fill="#FFFFFF"/><text font-family="Times New Roman,Times New Roman_MSFontService,sans-serif" font-weight="400" font-size="55" transform="matrix(1 0 0 1 2385.77 1334)">B</text><text font-family="Times New Roman,Times New Roman_MSFontService,sans-serif" font-weight="400" font-size="55" transform="matrix(1 0 0 1 2422.44 1334)">-</text><text font-family="Times New Roman,Times New Roman_MSFontService,sans-serif" font-weight="400" font-size="55" transform="matrix(1 0 0 1 2440.77 1334)">04</text><rect x="1603.5" y="784.5" width="362" height="59.0001" stroke="#FCF600" stroke-width="6.875" stroke-miterlimit="8" fill="#FCF600"/><text font-family="Times New Roman,Times New Roman_MSFontService,sans-serif" font-weight="400" font-size="55" transform="matrix(1 0 0 1 1691.05 833)">S1 </text><text font-family="Times New Roman,Times New Roman_MSFontService,sans-serif" font-weight="400" font-size="55" transform="matrix(1 0 0 1 1762.66 833)">to </text><text font-family="Times New Roman,Times New Roman_MSFontService,sans-serif" font-weight="400" font-size="55" transform="matrix(1 0 0 1 1819.38 833)">S8</text><rect x="2384.5" y="780.5" width="362" height="58.9998" stroke="#FCF600" stroke-width="6.875" stroke-miterlimit="8" fill="#FCF600"/><text font-family="Times New Roman,Times New Roman_MSFontService,sans-serif" font-weight="400" font-size="55" transform="matrix(1 0 0 1 2471.97 830)">S1 to S8</text><rect x="1603.5" y="1084.5" width="362" height="59.0001" stroke="#FCF600" stroke-width="6.875" stroke-miterlimit="8" fill="#FCF600"/><text font-family="Times New Roman,Times New Roman_MSFontService,sans-serif" font-weight="400" font-size="55" transform="matrix(1 0 0 1 1691.05 1133)">S1 to S8</text><rect x="2380.5" y="1083.5" width="361" height="59.0001" stroke="#FCF600" stroke-width="6.875" stroke-miterlimit="8" fill="#FCF600"/><text font-family="Times New Roman,Times New Roman_MSFontService,sans-serif" font-weight="400" font-size="55" transform="matrix(1 0 0 1 2467.51 1133)">S1 to S8</text><path d="M0 0 163.536 159.435" stroke="#FCF600" stroke-width="6.875" stroke-miterlimit="8" fill="#E3C912" fill-rule="evenodd" transform="matrix(-1 0 0 1 1604.04 806.5)"/><path d="M1604.04 1113.34 1440.5 965.5" stroke="#FCF600" stroke-width="6.875" stroke-miterlimit="8" fill="#E3C912" fill-rule="evenodd"/><path d="M0 0 944.456 155.693" stroke="#FCF600" stroke-width="6.875" stroke-miterlimit="8" fill="#E3C912" fill-rule="evenodd" transform="matrix(-1 0 0 1 2384.96 810.5)"/><path d="M2380.49 1112.86 1440.5 965.5" stroke="#FCF600" stroke-width="6.875" stroke-miterlimit="8" fill="#E3C912" fill-rule="evenodd"/><path d="M2740.5 778.5 2937.94 952.547" fill="#E3C912" fill-rule="evenodd"/><path d="M2742.77 775.922 2923.02 934.814 2918.48 939.971 2738.23 781.079ZM2926.4 924.047 2937.94 952.547 2908.22 944.676Z" fill="#FCF600"/><path d="M0 0 195.578 160.564" fill="#E3C912" fill-rule="evenodd" transform="matrix(-1 0 0 1 2937.08 952.5)"/><path d="M19.8936 11.8845 197.759 157.907 193.397 163.22 15.5313 17.1982ZM12.53 28.0769 0 0 29.9795 6.82212Z" fill="#FCF600" transform="matrix(-1 0 0 1 2937.08 952.5)"/><path d="M2937.54 952.527 1965.5 813.5" fill="#E3C912" fill-rule="evenodd"/><path d="M2914.36 952.685 1965.01 816.903 1965.99 810.097 2915.33 945.88ZM2912.26 935.022 2937.54 952.527 2908.37 962.245Z" fill="#FCF600"/><path d="M0 0 972.036 161.044" fill="#E3C912" fill-rule="evenodd" transform="matrix(-1 0 0 1 2937.54 952.5)"/><path d="M23.1724 0.354773 972.598 157.653 971.474 164.436 22.0487 7.13732ZM24.8828 18.0599 0 0 29.3776-9.07024Z" fill="#FCF600" transform="matrix(-1 0 0 1 2937.54 952.5)"/><rect x="1134.5" y="1543.5" width="2138" height="327" stroke="#000000" stroke-width="6.875" stroke-miterlimit="8" fill="#FFFFFF"/><text font-family="Times New Roman,Times New Roman_MSFontService,sans-serif" font-weight="400" font-size="55" transform="matrix(1 0 0 1 2396.97 1625)">S: Process step in material flow</text><rect x="1189.5" y="1660.5" width="130" height="65" stroke="#FCF600" stroke-width="6.875" stroke-miterlimit="8" fill="#FCF600"/><rect x="1189.5" y="1747.5" width="130" height="65" stroke="#E8E8E8" stroke-width="6.875" stroke-miterlimit="8" fill="#E8E8E8"/><text font-family="Times New Roman,Times New Roman_MSFontService,sans-serif" font-weight="400" font-size="55" transform="matrix(1 0 0 1 1356.28 1712)">Hail damage </text><text font-family="Times New Roman,Times New Roman_MSFontService,sans-serif" font-weight="400" font-size="55" transform="matrix(1 0 0 1 1650.75 1712)">(</text><text font-family="Times New Roman,Times New Roman_MSFontService,sans-serif" font-weight="400" font-size="55" transform="matrix(1 0 0 1 1669.09 1712)">HD</text><text font-family="Times New Roman,Times New Roman_MSFontService,sans-serif" font-weight="400" font-size="55" transform="matrix(1 0 0 1 1748.15 1712)">)</text><text font-family="Times New Roman,Times New Roman_MSFontService,sans-serif" font-weight="400" font-size="55" transform="matrix(1 0 0 1 1352.39 1799)">Workstation (WS)</text><rect x="2397.5" y="1660.5" width="130" height="65" stroke="#7F7F7F" stroke-width="6.875" stroke-miterlimit="8" fill="#7F7F7F"/><text font-family="Times New Roman,Times New Roman_MSFontService,sans-serif" font-weight="400" font-size="55" transform="matrix(1 0 0 1 2563.77 1712)">Material flow start and end</text><rect x="2395.5" y="1747.5" width="130" height="65" stroke="#000000" stroke-width="6.875" stroke-miterlimit="8" fill="none"/><text font-family="Times New Roman,Times New Roman_MSFontService,sans-serif" font-weight="400" font-size="55" transform="matrix(1 0 0 1 2570.35 1799)">Bu</text><text font-family="Times New Roman,Times New Roman_MSFontService,sans-serif" font-weight="400" font-size="55" transform="matrix(1 0 0 1 2634.52 1799)">ffer</text><text font-family="Times New Roman,Times New Roman_MSFontService,sans-serif" font-weight="400" font-size="55" transform="matrix(1 0 0 1 2726.92 1799)">(B)</text><path d="M0 0 129.921 1.09459" fill="#E3C912" fill-rule="evenodd" transform="matrix(-1 0 0 1 1319.42 1605.5)"/><path d="M22.9448-3.24431 129.95-2.34279 129.892 4.53196 22.8869 3.63044ZM27.3832 13.9812 0 0 27.6149-13.5178Z" fill="#FCF600" transform="matrix(-1 0 0 1 1319.42 1605.5)"/><text font-family="Times New Roman,Times New Roman_MSFontService,sans-serif" font-weight="400" font-size="55" transform="matrix(1 0 0 1 1356.28 1625)">Material flow direction</text></g></svg>