<svg width="2154" height="2084" xmlns="http://www.w3.org/2000/svg" xmlns:xlink="http://www.w3.org/1999/xlink" xml:space="preserve" overflow="hidden"><g transform="translate(-1129 -270)"><rect x="2478.5" y="753.5" width="391" height="316" stroke="#FFFFFF" stroke-width="6.875" stroke-miterlimit="8" fill="#FFFFFF"/><rect x="2048.5" y="753.5" width="391" height="315" stroke="#FFFFFF" stroke-width="6.875" stroke-miterlimit="8" fill="#FFFFFF"/><rect x="1591.5" y="1174.5" width="391" height="316" stroke="#FFFFFF" stroke-width="6.875" stroke-miterlimit="8" fill="#FFFFFF"/><rect x="2052.5" y="1174.5" width="391" height="316" stroke="#FFFFFF" stroke-width="6.875" stroke-miterlimit="8" fill="#FFFFFF"/><rect x="1592.5" y="753.5" width="391" height="315" stroke="#FFFFFF" stroke-width="6.875" stroke-miterlimit="8" fill="#FFFFFF"/><rect x="1592.5" y="753.5" width="391" height="315" stroke="#FFFFFF" stroke-width="6.875" stroke-miterlimit="8" fill="#FFFFFF"/><rect x="1132.5" y="273.5" width="2139" height="104" stroke="#E8E8E8" stroke-width="6.875" stroke-miterlimit="8" fill="#E8E8E8"/><text font-family="Times New Roman,Times New Roman_MSFontService,sans-serif" font-weight="700" font-size="55" transform="matrix(1 0 0 1 1339.54 345)">Scenario #5: </text><text font-family="Times New Roman,Times New Roman_MSFontService,sans-serif" font-weight="400" font-size="55" transform="matrix(1 0 0 1 1645.48 345)">Workshop </text><text font-family="Times New Roman,Times New Roman_MSFontService,sans-serif" font-weight="400" font-size="55" transform="matrix(1 0 0 1 1884 345)">–</text><text font-family="Times New Roman,Times New Roman_MSFontService,sans-serif" font-weight="400" font-size="55" transform="matrix(1 0 0 1 1925.25 345)">5 </text><text font-family="Times New Roman,Times New Roman_MSFontService,sans-serif" font-weight="400" font-size="55" transform="matrix(1 0 0 1 1965.51 345)">Workstations </text><text font-family="Times New Roman,Times New Roman_MSFontService,sans-serif" font-weight="400" font-size="55" transform="matrix(1 0 0 1 2268.77 345)">–</text><text font-family="Times New Roman,Times New Roman_MSFontService,sans-serif" font-weight="400" font-size="55" transform="matrix(1 0 0 1 2310.02 345)">Division </text><text font-family="Times New Roman,Times New Roman_MSFontService,sans-serif" font-weight="400" font-size="55" transform="matrix(1 0 0 1 2513.4 345)">of Quantity </text><text font-family="Times New Roman,Times New Roman_MSFontService,sans-serif" font-weight="400" font-size="55" transform="matrix(1 0 0 1 2779.81 345)">–</text><text font-family="Times New Roman,Times New Roman_MSFontService,sans-serif" font-weight="400" font-size="55" transform="matrix(1 0 0 1 2818.03 345)">Automated </text><rect x="1132.5" y="398.5" width="2139" height="1458" stroke="#000000" stroke-width="6.875" stroke-miterlimit="8" fill="#FFFFFF"/><rect x="1751.5" y="428.5" width="219" height="312" stroke="#E8E8E8" stroke-width="6.875" stroke-miterlimit="8" fill="#E8E8E8"/><text font-family="Times New Roman,Times New Roman_MSFontService,sans-serif" font-weight="400" font-size="55" transform="matrix(1 0 0 1 1782.31 604)">WS</text><text font-family="Times New Roman,Times New Roman_MSFontService,sans-serif" font-weight="400" font-size="55" transform="matrix(1 0 0 1 1864.81 604)">-</text><text font-family="Times New Roman,Times New Roman_MSFontService,sans-serif" font-weight="400" font-size="55" transform="matrix(1 0 0 1 1883.14 604)">03</text><rect x="2200.5" y="428.5" width="219" height="312" stroke="#E8E8E8" stroke-width="6.875" stroke-miterlimit="8" fill="#E8E8E8"/><text font-family="Times New Roman,Times New Roman_MSFontService,sans-serif" font-weight="400" font-size="55" transform="matrix(1 0 0 1 2231.56 604)">WS</text><text font-family="Times New Roman,Times New Roman_MSFontService,sans-serif" font-weight="400" font-size="55" transform="matrix(1 0 0 1 2314.06 604)">-</text><text font-family="Times New Roman,Times New Roman_MSFontService,sans-serif" font-weight="400" font-size="55" transform="matrix(1 0 0 1 2332.39 604)">04</text><rect x="1746.5" y="1503.5" width="219" height="312" stroke="#E8E8E8" stroke-width="6.875" stroke-miterlimit="8" fill="#E8E8E8"/><text font-family="Times New Roman,Times New Roman_MSFontService,sans-serif" font-weight="400" font-size="55" transform="matrix(1 0 0 1 1777.52 1679)">WS</text><text font-family="Times New Roman,Times New Roman_MSFontService,sans-serif" font-weight="400" font-size="55" transform="matrix(1 0 0 1 1860.02 1679)">-</text><text font-family="Times New Roman,Times New Roman_MSFontService,sans-serif" font-weight="400" font-size="55" transform="matrix(1 0 0 1 1878.36 1679)">01</text><rect x="1603.5" y="428.5" width="126" height="312" stroke="#000000" stroke-width="6.875" stroke-miterlimit="8" fill="#FFFFFF"/><text font-family="Times New Roman,Times New Roman_MSFontService,sans-serif" font-weight="400" font-size="55" transform="matrix(1 0 0 1 1611.17 604)">B</text><text font-family="Times New Roman,Times New Roman_MSFontService,sans-serif" font-weight="400" font-size="55" transform="matrix(1 0 0 1 1647.84 604)">-</text><text font-family="Times New Roman,Times New Roman_MSFontService,sans-serif" font-weight="400" font-size="55" transform="matrix(1 0 0 1 1666.17 604)">03</text><rect x="2064.5" y="428.5" width="125" height="312" stroke="#000000" stroke-width="6.875" stroke-miterlimit="8" fill="#FFFFFF"/><text font-family="Times New Roman,Times New Roman_MSFontService,sans-serif" font-weight="400" font-size="55" transform="matrix(1 0 0 1 2071.32 604)">B</text><text font-family="Times New Roman,Times New Roman_MSFontService,sans-serif" font-weight="400" font-size="55" transform="matrix(1 0 0 1 2107.98 604)">-</text><text font-family="Times New Roman,Times New Roman_MSFontService,sans-serif" font-weight="400" font-size="55" transform="matrix(1 0 0 1 2126.32 604)">04</text><rect x="1603.5" y="1503.5" width="126" height="312" stroke="#000000" stroke-width="6.875" stroke-miterlimit="8" fill="#FFFFFF"/><text font-family="Times New Roman,Times New Roman_MSFontService,sans-serif" font-weight="400" font-size="55" transform="matrix(1 0 0 1 1611.17 1679)">B</text><text font-family="Times New Roman,Times New Roman_MSFontService,sans-serif" font-weight="400" font-size="55" transform="matrix(1 0 0 1 1647.84 1679)">-</text><text font-family="Times New Roman,Times New Roman_MSFontService,sans-serif" font-weight="400" font-size="55" transform="matrix(1 0 0 1 1666.17 1679)">01</text><rect x="1158.5" y="969.5" width="260" height="306" stroke="#7F7F7F" stroke-width="6.875" stroke-miterlimit="8" fill="#7F7F7F"/><text font-family="Times New Roman,Times New Roman_MSFontService,sans-serif" font-weight="400" font-size="55" transform="matrix(1 0 0 1 1184.5 1142)">Goods</text><text font-family="Times New Roman,Times New Roman_MSFontService,sans-serif" font-weight="400" font-size="55" transform="matrix(1 0 0 1 1327.73 1142)">-</text><text font-family="Times New Roman,Times New Roman_MSFontService,sans-serif" font-weight="400" font-size="55" transform="matrix(1 0 0 1 1346.06 1142)">In</text><rect x="2946.5" y="968.5" width="273" height="312" stroke="#7F7F7F" stroke-width="6.875" stroke-miterlimit="8" fill="#7F7F7F"/><text font-family="Times New Roman,Times New Roman_MSFontService,sans-serif" font-weight="400" font-size="55" transform="matrix(1 0 0 1 2960.71 1144)">Warehouse</text><rect x="2206.5" y="1503.5" width="219" height="312" stroke="#E8E8E8" stroke-width="6.875" stroke-miterlimit="8" fill="#E8E8E8"/><text font-family="Times New Roman,Times New Roman_MSFontService,sans-serif" font-weight="400" font-size="55" transform="matrix(1 0 0 1 2237.67 1679)">WS</text><text font-family="Times New Roman,Times New Roman_MSFontService,sans-serif" font-weight="400" font-size="55" transform="matrix(1 0 0 1 2320.17 1679)">-</text><text font-family="Times New Roman,Times New Roman_MSFontService,sans-serif" font-weight="400" font-size="55" transform="matrix(1 0 0 1 2338.5 1679)">02</text><rect x="2064.5" y="1503.5" width="125" height="312" stroke="#000000" stroke-width="6.875" stroke-miterlimit="8" fill="#FFFFFF"/><text font-family="Times New Roman,Times New Roman_MSFontService,sans-serif" font-weight="400" font-size="55" transform="matrix(1 0 0 1 2071.32 1679)">B</text><text font-family="Times New Roman,Times New Roman_MSFontService,sans-serif" font-weight="400" font-size="55" transform="matrix(1 0 0 1 2107.98 1679)">-</text><text font-family="Times New Roman,Times New Roman_MSFontService,sans-serif" font-weight="400" font-size="55" transform="matrix(1 0 0 1 2126.32 1679)">02</text><rect x="2630.5" y="426.5" width="219" height="312" stroke="#E8E8E8" stroke-width="6.875" stroke-miterlimit="8" fill="#E8E8E8"/><text font-family="Times New Roman,Times New Roman_MSFontService,sans-serif" font-weight="400" font-size="55" transform="matrix(1 0 0 1 2661.59 602)">WS</text><text font-family="Times New Roman,Times New Roman_MSFontService,sans-serif" font-weight="400" font-size="55" transform="matrix(1 0 0 1 2744.09 602)">-</text><text font-family="Times New Roman,Times New Roman_MSFontService,sans-serif" font-weight="400" font-size="55" transform="matrix(1 0 0 1 2762.43 602)">05</text><rect x="2494.5" y="426.5" width="125" height="312" stroke="#000000" stroke-width="6.875" stroke-miterlimit="8" fill="#FFFFFF"/><text font-family="Times New Roman,Times New Roman_MSFontService,sans-serif" font-weight="400" font-size="55" transform="matrix(1 0 0 1 2501.35 602)">B</text><text font-family="Times New Roman,Times New Roman_MSFontService,sans-serif" font-weight="400" font-size="55" transform="matrix(1 0 0 1 2538.02 602)">-</text><text font-family="Times New Roman,Times New Roman_MSFontService,sans-serif" font-weight="400" font-size="55" transform="matrix(1 0 0 1 2556.35 602)">05</text><path d="M1815.5 1451.5 1841.48 1451.5" stroke="#E3C912" stroke-width="6.875" stroke-miterlimit="8" fill="#E3C912" fill-rule="evenodd"/><rect x="1605.5" y="911.5" width="362" height="57.9998" stroke="#CCE5FF" stroke-width="6.875" stroke-miterlimit="8" fill="#CCE5FF"/><rect x="2064.5" y="911.5" width="361" height="57.9998" stroke="#CCE5FF" stroke-width="6.875" stroke-miterlimit="8" fill="#CCE5FF"/><rect x="2494.5" y="911.5" width="361" height="57.9998" stroke="#CCE5FF" stroke-width="6.875" stroke-miterlimit="8" fill="#CCE5FF"/><rect x="1602.5" y="1275.5" width="361" height="58.9998" stroke="#CCE5FF" stroke-width="6.875" stroke-miterlimit="8" fill="#CCE5FF"/><rect x="2064.5" y="1276.5" width="361" height="59.0001" stroke="#CCE5FF" stroke-width="6.875" stroke-miterlimit="8" fill="#CCE5FF"/><rect x="1605.5" y="986.5" width="362" height="58.9998" stroke="#CDEB8B" stroke-width="6.875" stroke-miterlimit="8" fill="#CDEB8B"/><rect x="2062.5" y="986.5" width="362" height="58.9998" stroke="#CDEB8B" stroke-width="6.875" stroke-miterlimit="8" fill="#CDEB8B"/><rect x="1602.5" y="1201.5" width="361" height="59.0001" stroke="#CDEB8B" stroke-width="6.875" stroke-miterlimit="8" fill="#CDEB8B"/><rect x="2063.5" y="1202.5" width="362" height="58.0001" stroke="#CDEB8B" stroke-width="6.875" stroke-miterlimit="8" fill="#CDEB8B"/><rect x="2494.5" y="985.5" width="361" height="58.0001" stroke="#CDEB8B" stroke-width="6.875" stroke-miterlimit="8" fill="#CDEB8B"/><path d="M1590.85 1332.55 1417.5 1183.5" stroke="#0E2841" stroke-width="6.875" stroke-miterlimit="8" stroke-dasharray="55 20.625 6.875 20.625 6.875 20.625" fill="#E3C912" fill-rule="evenodd"/><path d="M0 0 168.906 169.939" stroke="#0E2841" stroke-width="6.875" stroke-miterlimit="8" fill="#E52601" fill-rule="evenodd" transform="matrix(-1 0 0 1 1592.41 911.5)"/><path d="M0 0 501.845 149.131" fill="#E52601" fill-rule="evenodd" transform="matrix(-1 0 0 1 2945.34 1183.5)"/><path d="M22.9466 3.23285 49.3073 11.0663 47.3489 17.6565 20.9882 9.82302ZM69.0778 16.9414 95.4385 24.7749 93.4801 31.3651 67.1194 23.5316ZM115.209 30.65 141.57 38.4835 139.611 45.0737 113.251 37.2402ZM161.34 44.3586 187.701 52.1921 185.743 58.7823 159.382 50.9488ZM207.471 58.0672 233.832 65.9007 231.874 72.4909 205.513 64.6574ZM253.603 71.7758 279.963 79.6093 278.005 86.1995 251.644 78.366ZM299.734 85.4844 326.095 93.3179 324.136 99.9081 297.776 92.0746ZM345.865 99.193 372.226 107.026 370.267 113.617 343.907 105.783ZM391.996 112.902 418.357 120.735 416.399 127.325 390.038 119.492ZM438.128 126.61 464.488 134.444 462.53 141.034 436.169 133.2ZM484.259 140.319 502.824 145.836 500.866 152.426 482.3 146.909ZM22.444 21.0138 0 0 30.2774-5.34687Z" fill="#0E2841" transform="matrix(-1 0 0 1 2945.34 1183.5)"/><path d="M2946.57 1053.61 2869.5 911.5" fill="#E52601" fill-rule="evenodd"/><path d="M2932.63 1035.11 2919.52 1010.93 2925.56 1007.66 2938.67 1031.83ZM2909.68 992.804 2906.41 986.76 2912.45 983.483 2915.73 989.526ZM2896.57 968.63 2883.46 944.456 2889.51 941.178 2902.62 965.352ZM2873.63 926.326 2870.35 920.282 2876.4 917.005 2879.67 923.048ZM2945.55 1022.88 2946.57 1053.61 2921.38 1036Z" fill="#0E2841"/><path d="M0 0 551.576 0.000360892" stroke="#0E2841" stroke-width="6.875" stroke-miterlimit="8" stroke-dasharray="6.875 6.875" fill="#E52601" fill-rule="evenodd" transform="matrix(-1 0 0 1 1970.08 1097.5)"/><path d="M0 0 76.3179 184.507" stroke="#0E2841" stroke-width="6.875" stroke-miterlimit="8" stroke-dasharray="6.875 6.875" fill="#E52601" fill-rule="evenodd" transform="matrix(-1 0 0 1 2047.82 911.5)"/><path d="M0 0 69.5736 211.589" stroke="#0E2841" stroke-width="6.875" stroke-miterlimit="8" stroke-dasharray="27.5 20.625 6.875 20.625" fill="#E52601" fill-rule="evenodd" transform="matrix(-1 0 0 1 2478.07 911.5)"/><path d="M1974.5 1164.5 2052.81 1332.51" stroke="#0E2841" stroke-width="6.875" stroke-miterlimit="8" stroke-dasharray="27.5 20.625" fill="#E52601" fill-rule="evenodd"/><path d="M0 0 883.465 0.000360892" fill="#E52601" fill-rule="evenodd" transform="matrix(-1 0 0 1 2946.96 1074.5)"/><path d="M22.9167-3.43749 883.465-3.43714 883.465 3.43786 22.9167 3.43751ZM27.5 13.75 0 0 27.5-13.75Z" fill="#0E2841" transform="matrix(-1 0 0 1 2946.96 1074.5)"/><path d="M0 0 77.0729 185.852" stroke="#0E2841" stroke-width="6.875" stroke-miterlimit="8" stroke-dasharray="55 20.625 6.875 20.625 6.875 20.625" fill="#E52601" fill-rule="evenodd" transform="matrix(1 0 0 -1 1982.5 1332.35)"/><path d="M1983.5 911.5 2063.06 1072.17" stroke="#0E2841" stroke-width="6.875" stroke-miterlimit="8" fill="#E52601" fill-rule="evenodd"/><path d="M2439.5 911.5 2516.57 1096.01" stroke="#0E2841" stroke-width="6.875" stroke-miterlimit="8" stroke-dasharray="6.875 6.875" fill="#E52601" fill-rule="evenodd"/><rect x="2064.5" y="1425.5" width="362" height="59.0001" stroke="#FCF600" stroke-width="6.875" stroke-miterlimit="8" fill="#FCF600"/><text font-family="Times New Roman,Times New Roman_MSFontService,sans-serif" font-weight="400" font-size="55" transform="matrix(1 0 0 1 2151.87 1475)">S1 to S8</text><rect x="2064.5" y="1350.5" width="362" height="58.9998" stroke="#FAD9D5" stroke-width="6.875" stroke-miterlimit="8" fill="#FAD9D5"/><text font-family="Times New Roman,Times New Roman_MSFontService,sans-serif" font-weight="400" font-size="55" transform="matrix(1 0 0 1 2151.87 1399)">S1 to S4</text><text font-family="Times New Roman,Times New Roman_MSFontService,sans-serif" font-weight="400" font-size="55" transform="matrix(1 0 0 1 2094.29 1250)">S3, S4, S6, S8</text><text font-family="Times New Roman,Times New Roman_MSFontService,sans-serif" font-weight="400" font-size="55" transform="matrix(1 0 0 1 2087.31 1324)">S1, S3, S7, S8</text><rect x="2494.5" y="759.5" width="361" height="59.0001" stroke="#FCF600" stroke-width="6.875" stroke-miterlimit="8" fill="#FCF600"/><text font-family="Times New Roman,Times New Roman_MSFontService,sans-serif" font-weight="400" font-size="55" transform="matrix(1 0 0 1 2581.5 808)">S1 to S8</text><rect x="2494.5" y="832.5" width="361" height="58.9998" stroke="#FAD9D5" stroke-width="6.875" stroke-miterlimit="8" fill="#FAD9D5"/><text font-family="Times New Roman,Times New Roman_MSFontService,sans-serif" font-weight="400" font-size="55" transform="matrix(1 0 0 1 2581.5 882)">S1 to S4</text><text font-family="Times New Roman,Times New Roman_MSFontService,sans-serif" font-weight="400" font-size="55" transform="matrix(1 0 0 1 2515.17 1033)">S3, S4, S6, S8</text><text font-family="Times New Roman,Times New Roman_MSFontService,sans-serif" font-weight="400" font-size="55" transform="matrix(1 0 0 1 2517.98 960)">S1, S3, S7, S8</text><rect x="2064.5" y="759.5" width="362" height="59.0001" stroke="#FCF600" stroke-width="6.875" stroke-miterlimit="8" fill="#FCF600"/><text font-family="Times New Roman,Times New Roman_MSFontService,sans-serif" font-weight="400" font-size="55" transform="matrix(1 0 0 1 2151.87 808)">S1 to S8</text><rect x="2064.5" y="832.5" width="362" height="58.9998" stroke="#FAD9D5" stroke-width="6.875" stroke-miterlimit="8" fill="#FAD9D5"/><text font-family="Times New Roman,Times New Roman_MSFontService,sans-serif" font-weight="400" font-size="55" transform="matrix(1 0 0 1 2151.87 882)">S1 to S4</text><text font-family="Times New Roman,Times New Roman_MSFontService,sans-serif" font-weight="400" font-size="55" transform="matrix(1 0 0 1 2084.98 1032)">S3, S4, S6, S8</text><text font-family="Times New Roman,Times New Roman_MSFontService,sans-serif" font-weight="400" font-size="55" transform="matrix(1 0 0 1 2087.31 957)">S1, S3, S7, S8</text><rect x="1605.5" y="758.5" width="362" height="58.9998" stroke="#FCF600" stroke-width="6.875" stroke-miterlimit="8" fill="#FCF600"/><text font-family="Times New Roman,Times New Roman_MSFontService,sans-serif" font-weight="400" font-size="55" transform="matrix(1 0 0 1 1692.81 808)">S1 to S8</text><rect x="1605.5" y="832.5" width="362" height="58.9998" stroke="#FAD9D5" stroke-width="6.875" stroke-miterlimit="8" fill="#FAD9D5"/><text font-family="Times New Roman,Times New Roman_MSFontService,sans-serif" font-weight="400" font-size="55" transform="matrix(1 0 0 1 1693.15 882)">S1 to S4</text><text font-family="Times New Roman,Times New Roman_MSFontService,sans-serif" font-weight="400" font-size="55" transform="matrix(1 0 0 1 1629.67 1032)">S3, S4, S6, S8</text><text font-family="Times New Roman,Times New Roman_MSFontService,sans-serif" font-weight="400" font-size="55" transform="matrix(1 0 0 1 1630.75 957)">S1, S3, S7, S8</text><rect x="1602.5" y="1425.5" width="361" height="59.0001" stroke="#FCF600" stroke-width="6.875" stroke-miterlimit="8" fill="#FCF600"/><text font-family="Times New Roman,Times New Roman_MSFontService,sans-serif" font-weight="400" font-size="55" transform="matrix(1 0 0 1 1689.6 1475)">S1 to S8</text><rect x="1602.5" y="1352.5" width="361" height="58.9998" stroke="#FAD9D5" stroke-width="6.875" stroke-miterlimit="8" fill="#FAD9D5"/><text font-family="Times New Roman,Times New Roman_MSFontService,sans-serif" font-weight="400" font-size="55" transform="matrix(1 0 0 1 1689.6 1402)">S1 to S4</text><text font-family="Times New Roman,Times New Roman_MSFontService,sans-serif" font-weight="400" font-size="55" transform="matrix(1 0 0 1 1632.7 1250)">S3, S4, S6, S8</text><text font-family="Times New Roman,Times New Roman_MSFontService,sans-serif" font-weight="400" font-size="55" transform="matrix(1 0 0 1 1625.72 1322)">S1, S3, S7, S8</text><rect x="1134.5" y="1874.5" width="2138" height="475" stroke="#000000" stroke-width="6.875" stroke-miterlimit="8" fill="#FFFFFF"/><text font-family="Times New Roman,Times New Roman_MSFontService,sans-serif" font-weight="400" font-size="55" transform="matrix(1 0 0 1 2396.97 1955)">S: Process step in material flow</text><rect x="1189.5" y="1991.5" width="130" height="65.0004" stroke="#FCF600" stroke-width="6.875" stroke-miterlimit="8" fill="#FCF600"/><rect x="1189.5" y="2079.5" width="130" height="65.0002" stroke="#FAD9D5" stroke-width="6.875" stroke-miterlimit="8" fill="#FAD9D5"/><rect x="1189.5" y="2167.5" width="130" height="65.0002" stroke="#CCE5FF" stroke-width="6.875" stroke-miterlimit="8" fill="#CCE5FF"/><text font-family="Times New Roman,Times New Roman_MSFontService,sans-serif" font-weight="400" font-size="55" transform="matrix(1 0 0 1 1356.28 2043)">Hail damage (HD)</text><text font-family="Times New Roman,Times New Roman_MSFontService,sans-serif" font-weight="400" font-size="55" transform="matrix(1 0 0 1 1352.39 2131)">Total loss (TL)</text><text font-family="Times New Roman,Times New Roman_MSFontService,sans-serif" font-weight="400" font-size="55" transform="matrix(1 0 0 1 1352.39 2219)">Rear damage (RD)</text><rect x="2397.5" y="1991.5" width="130" height="65.0004" stroke="#7F7F7F" stroke-width="6.875" stroke-miterlimit="8" fill="#7F7F7F"/><text font-family="Times New Roman,Times New Roman_MSFontService,sans-serif" font-weight="400" font-size="55" transform="matrix(1 0 0 1 2563.77 2043)">Material flow start and end</text><rect x="2395.5" y="2079.5" width="130" height="65.0002" stroke="#000000" stroke-width="6.875" stroke-miterlimit="8" fill="none"/><text font-family="Times New Roman,Times New Roman_MSFontService,sans-serif" font-weight="400" font-size="55" transform="matrix(1 0 0 1 2570.35 2131)">Bu</text><text font-family="Times New Roman,Times New Roman_MSFontService,sans-serif" font-weight="400" font-size="55" transform="matrix(1 0 0 1 2634.52 2131)">ffer</text><text font-family="Times New Roman,Times New Roman_MSFontService,sans-serif" font-weight="400" font-size="55" transform="matrix(1 0 0 1 2726.92 2131)">(B)</text><rect x="2395.5" y="2167.5" width="130" height="65.0002" stroke="#E8E8E8" stroke-width="6.875" stroke-miterlimit="8" fill="#E8E8E8"/><text font-family="Times New Roman,Times New Roman_MSFontService,sans-serif" font-weight="400" font-size="55" transform="matrix(1 0 0 1 2563.77 2219)">Works</text><text font-family="Times New Roman,Times New Roman_MSFontService,sans-serif" font-weight="400" font-size="55" transform="matrix(1 0 0 1 2706.04 2219)">tation</text><text font-family="Times New Roman,Times New Roman_MSFontService,sans-serif" font-weight="400" font-size="55" transform="matrix(1 0 0 1 2845.83 2219)">(WS)</text><text font-family="Times New Roman,Times New Roman_MSFontService,sans-serif" font-weight="400" font-size="55" transform="matrix(1 0 0 1 1356.28 1955)">Material flow </text><text font-family="Times New Roman,Times New Roman_MSFontService,sans-serif" font-weight="400" font-size="55" transform="matrix(1 0 0 1 1671.95 1955)">direction</text><text font-family="Times New Roman,Times New Roman_MSFontService,sans-serif" font-weight="400" font-size="55" transform="matrix(1 0 0 1 1882.21 1955)">(HD, TL, RD, SA)</text><rect x="1189.5" y="2255.5" width="130" height="65.0002" stroke="#CDEB8B" stroke-width="6.875" stroke-miterlimit="8" fill="#CDEB8B"/><text font-family="Times New Roman,Times New Roman_MSFontService,sans-serif" font-weight="400" font-size="55" transform="matrix(1 0 0 1 1352.39 2308)">Defective shock absorbers (SA)</text><path d="M1319.42 1893.5 1189.5 1893.5" fill="#E3C912" fill-rule="evenodd"/><path d="M1296.5 1896.94 1189.5 1896.94 1189.5 1890.06 1296.5 1890.06ZM1291.92 1879.75 1319.42 1893.5 1291.92 1907.25Z"/><path d="M0 0 129.921 1.09459" fill="#E3C912" fill-rule="evenodd" transform="matrix(-1 0 0 1 1319.42 1913.5)"/><path d="M22.9448-3.24431 29.8196-3.18639 29.7617 3.68836 22.8869 3.63044ZM36.6944-3.12847 43.5691-3.07055 43.5112 3.8042 36.6364 3.74628ZM50.4439-3.01263 57.3186-2.95471 57.2607 3.92004 50.3859 3.86212ZM64.1934-2.89679 71.0681-2.83887 71.0102 4.03588 64.1355 3.97796ZM77.9429-2.78095 84.8176-2.72303 84.7597 4.15172 77.885 4.0938ZM91.6924-2.66511 98.5672-2.60719 98.5092 4.26756 91.6345 4.20964ZM105.442-2.54927 112.317-2.49135 112.259 4.3834 105.384 4.32548ZM119.191-2.43343 126.066-2.37551 126.008 4.49924 119.133 4.44132ZM27.3832 13.9812 0 0 27.6149-13.5178Z" transform="matrix(-1 0 0 1 1319.42 1913.5)"/><path d="M0 0 129.921 1.09459" fill="#E3C912" fill-rule="evenodd" transform="matrix(-1 0 0 1 1319.42 1935.5)"/><path d="M22.9448-3.24431 50.4439-3.01263 50.3859 3.86212 22.8869 3.63044ZM71.0681-2.83887 77.9429-2.78095 77.885 4.0938 71.0102 4.03588ZM98.5672-2.60719 126.066-2.37551 126.008 4.49924 98.5092 4.26756ZM27.3832 13.9812 0 0 27.6149-13.5178Z" transform="matrix(-1 0 0 1 1319.42 1935.5)"/><path d="M0 0 129.921 0.000360892" fill="#E3C912" fill-rule="evenodd" transform="matrix(-1 0 0 1 1319.42 1956.5)"/><path d="M22.9167-3.43744 50.4167-3.43736 50.4167 3.43764 22.9167 3.43756ZM71.0417-3.4373 98.5417-3.43723 98.5417 3.43777 71.0417 3.4377ZM119.167-3.43717 129.921-3.43714 129.921 3.43786 119.167 3.43783ZM27.5 13.7501 0 0 27.5-13.7499Z" transform="matrix(-1 0 0 1 1319.42 1956.5)"/><path d="M0 0 416.291 0.000360892" fill="#E52601" fill-rule="evenodd" transform="matrix(-1 0 0 1 2935.79 1097.5)"/><path d="M22.9168-3.43748 29.7918-3.43747 29.7918 3.43753 22.9168 3.43752ZM36.6668-3.43747 43.5418-3.43746 43.5418 3.43754 36.6668 3.43753ZM50.4168-3.43746 57.2918-3.43745 57.2918 3.43755 50.4168 3.43754ZM64.1668-3.43744 71.0418-3.43744 71.0418 3.43756 64.1668 3.43756ZM77.9168-3.43743 84.7918-3.43743 84.7918 3.43757 77.9168 3.43757ZM91.6668-3.43742 98.5418-3.43741 98.5418 3.43759 91.6668 3.43758ZM105.417-3.43741 112.292-3.4374 112.292 3.4376 105.417 3.43759ZM119.167-3.4374 126.042-3.43739 126.042 3.43761 119.167 3.4376ZM132.917-3.43738 139.792-3.43738 139.792 3.43762 132.917 3.43762ZM146.667-3.43737 153.542-3.43737 153.542 3.43763 146.667 3.43763ZM160.417-3.43736 167.292-3.43735 167.292 3.43765 160.417 3.43764ZM174.167-3.43735 181.042-3.43734 181.042 3.43766 174.167 3.43765ZM187.917-3.43734 194.792-3.43733 194.792 3.43767 187.917 3.43766ZM201.667-3.43733 208.542-3.43732 208.542 3.43768 201.667 3.43767ZM215.417-3.43731 222.292-3.43731 222.292 3.43769 215.417 3.43769ZM229.167-3.4373 236.042-3.4373 236.042 3.4377 229.167 3.4377ZM242.917-3.43729 249.792-3.43728 249.792 3.43772 242.917 3.43771ZM256.667-3.43728 263.542-3.43727 263.542 3.43773 256.667 3.43772ZM270.417-3.43727 277.292-3.43726 277.292 3.43774 270.417 3.43773ZM284.167-3.43725 291.042-3.43725 291.042 3.43775 284.167 3.43775ZM297.917-3.43724 304.792-3.43724 304.792 3.43776 297.917 3.43776ZM311.667-3.43723 318.542-3.43722 318.542 3.43778 311.667 3.43777ZM325.417-3.43722 332.292-3.43721 332.292 3.43779 325.417 3.43778ZM339.167-3.43721 346.042-3.4372 346.042 3.4378 339.167 3.43779ZM352.917-3.43719 359.792-3.43719 359.792 3.43781 352.917 3.43781ZM366.667-3.43718 373.542-3.43718 373.542 3.43782 366.667 3.43782ZM380.417-3.43717 387.292-3.43716 387.292 3.43784 380.417 3.43783ZM394.167-3.43716 401.042-3.43715 401.042 3.43785 394.167 3.43784ZM407.917-3.43715 414.792-3.43714 414.792 3.43786 407.917 3.43785ZM27.5 13.75 0 0 27.5-13.75Z" fill="#0E2841" transform="matrix(-1 0 0 1 2935.79 1097.5)"/><path d="M0 0 993.852 0.000360892" stroke="#0E2841" stroke-width="6.875" stroke-miterlimit="8" stroke-dasharray="27.5 20.625 6.875 20.625" fill="#E52601" fill-rule="evenodd" transform="matrix(-1 0 0 1 2412.35 1121.5)"/><path d="M0 0 551.576 0.000360892" stroke="#0E2841" stroke-width="6.875" stroke-miterlimit="8" stroke-dasharray="27.5 20.625" fill="#E52601" fill-rule="evenodd" transform="matrix(-1 0 0 1 1975.08 1166.5)"/><path d="M0 0 897.517 0.000360892" fill="#E52601" fill-rule="evenodd" transform="matrix(-1 0 0 1 2946.02 1153.5)"/><path d="M22.9167-3.43749 77.9167-3.43747 77.9167 3.43753 22.9167 3.43751ZM98.5417-3.43746 105.417-3.43746 105.417 3.43754 98.5417 3.43754ZM126.042-3.43745 132.917-3.43745 132.917 3.43755 126.042 3.43755ZM153.542-3.43744 208.542-3.43742 208.542 3.43758 153.542 3.43756ZM229.167-3.43741 236.042-3.43741 236.042 3.43759 229.167 3.43759ZM256.667-3.4374 263.542-3.43739 263.542 3.43761 256.667 3.4376ZM284.167-3.43739 339.167-3.43736 339.167 3.43764 284.167 3.43761ZM359.792-3.43736 366.667-3.43735 366.667 3.43765 359.792 3.43764ZM387.292-3.43734 394.167-3.43734 394.167 3.43766 387.292 3.43766ZM414.792-3.43733 469.792-3.43731 469.792 3.43769 414.792 3.43767ZM490.417-3.4373 497.292-3.4373 497.292 3.4377 490.417 3.4377ZM517.917-3.43729 524.792-3.43729 524.792 3.43771 517.917 3.43771ZM545.417-3.43728 600.417-3.43726 600.417 3.43774 545.417 3.43772ZM621.042-3.43725 627.917-3.43725 627.917 3.43775 621.042 3.43775ZM648.542-3.43724 655.417-3.43724 655.417 3.43776 648.542 3.43776ZM676.042-3.43723 731.042-3.43721 731.042 3.43779 676.042 3.43777ZM751.667-3.4372 758.542-3.4372 758.542 3.4378 751.667 3.4378ZM779.167-3.43719 786.042-3.43718 786.042 3.43782 779.167 3.43781ZM806.667-3.43718 861.667-3.43715 861.667 3.43785 806.667 3.43782ZM882.292-3.43714 889.167-3.43714 889.167 3.43786 882.292 3.43786ZM27.5 13.75 0 0 27.5-13.75Z" fill="#0E2841" transform="matrix(-1 0 0 1 2946.02 1153.5)"/><path d="M0 0 129.921 0.000360892" fill="#E3C912" fill-rule="evenodd" transform="matrix(-1 0 0 1 1319.42 1976.5)"/><path d="M22.9167-3.43744 77.9167-3.43728 77.9167 3.43772 22.9167 3.43756ZM98.5417-3.43723 105.417-3.43721 105.417 3.43779 98.5417 3.43777ZM126.042-3.43715 129.921-3.43714 129.921 3.43786 126.042 3.43785ZM27.5 13.7501 0 0 27.5-13.7499Z" transform="matrix(-1 0 0 1 1319.42 1976.5)"/></g></svg>