<svg width="2154" height="1255" xmlns="http://www.w3.org/2000/svg" xmlns:xlink="http://www.w3.org/1999/xlink" xml:space="preserve" overflow="hidden"><g transform="translate(-1129 -270)"><rect x="1134.5" y="1115.5" width="2138" height="406" stroke="#000000" stroke-width="6.875" stroke-miterlimit="8" fill="#FFFFFF"/><rect x="1132.5" y="398.5" width="2139" height="701" stroke="#000000" stroke-width="6.875" stroke-miterlimit="8" fill="#FFFFFF"/><rect x="1790.5" y="548.5" width="78" height="65" stroke="#CCE5FF" stroke-width="6.875" stroke-miterlimit="8" fill="#CCE5FF"/><rect x="1790.5" y="646.5" width="78" height="65" stroke="#CDEB8B" stroke-width="6.875" stroke-miterlimit="8" fill="#CDEB8B"/><rect x="1186.5" y="742.5" width="260" height="305" stroke="#7F7F7F" stroke-width="6.875" stroke-miterlimit="8" fill="#7F7F7F"/><text font-family="Times New Roman,Times New Roman_MSFontService,sans-serif" font-weight="400" font-size="55" transform="matrix(1 0 0 1 1212.55 915)">Goods</text><text font-family="Times New Roman,Times New Roman_MSFontService,sans-serif" font-weight="400" font-size="55" transform="matrix(1 0 0 1 1355.78 915)">-</text><text font-family="Times New Roman,Times New Roman_MSFontService,sans-serif" font-weight="400" font-size="55" transform="matrix(1 0 0 1 1374.11 915)">In</text><rect x="2956.5" y="746.5" width="273" height="301" stroke="#7F7F7F" stroke-width="6.875" stroke-miterlimit="8" fill="#7F7F7F"/><text font-family="Times New Roman,Times New Roman_MSFontService,sans-serif" font-weight="400" font-size="55" transform="matrix(1 0 0 1 2970.56 917)">Warehouse</text><rect x="1749.5" y="742.5" width="219" height="311" stroke="#E8E8E8" stroke-width="6.875" stroke-miterlimit="8" fill="#E8E8E8"/><text font-family="Times New Roman,Times New Roman_MSFontService,sans-serif" font-weight="400" font-size="55" transform="matrix(1 0 0 1 1780.91 918)">WS</text><text font-family="Times New Roman,Times New Roman_MSFontService,sans-serif" font-weight="400" font-size="55" transform="matrix(1 0 0 1 1863.41 918)">-</text><text font-family="Times New Roman,Times New Roman_MSFontService,sans-serif" font-weight="400" font-size="55" transform="matrix(1 0 0 1 1881.74 918)">0</text><text font-family="Times New Roman,Times New Roman_MSFontService,sans-serif" font-weight="400" font-size="55" transform="matrix(1 0 0 1 1909.24 918)">3</text><rect x="2155.5" y="742.5" width="219" height="311" stroke="#E8E8E8" stroke-width="6.875" stroke-miterlimit="8" fill="#E8E8E8"/><text font-family="Times New Roman,Times New Roman_MSFontService,sans-serif" font-weight="400" font-size="55" transform="matrix(1 0 0 1 2186.26 918)">WS</text><text font-family="Times New Roman,Times New Roman_MSFontService,sans-serif" font-weight="400" font-size="55" transform="matrix(1 0 0 1 2268.76 918)">-</text><text font-family="Times New Roman,Times New Roman_MSFontService,sans-serif" font-weight="400" font-size="55" transform="matrix(1 0 0 1 2287.09 918)">0</text><text font-family="Times New Roman,Times New Roman_MSFontService,sans-serif" font-weight="400" font-size="55" transform="matrix(1 0 0 1 2314.59 918)">4</text><rect x="2567.5" y="742.5" width="219" height="311" stroke="#E8E8E8" stroke-width="6.875" stroke-miterlimit="8" fill="#E8E8E8"/><text font-family="Times New Roman,Times New Roman_MSFontService,sans-serif" font-weight="400" font-size="55" transform="matrix(1 0 0 1 2598.7 918)">WS</text><text font-family="Times New Roman,Times New Roman_MSFontService,sans-serif" font-weight="400" font-size="55" transform="matrix(1 0 0 1 2681.2 918)">-</text><text font-family="Times New Roman,Times New Roman_MSFontService,sans-serif" font-weight="400" font-size="55" transform="matrix(1 0 0 1 2699.53 918)">0</text><text font-family="Times New Roman,Times New Roman_MSFontService,sans-serif" font-weight="400" font-size="55" transform="matrix(1 0 0 1 2727.03 918)">5</text><text font-family="Times New Roman,Times New Roman_MSFontService,sans-serif" font-weight="400" font-size="55" transform="matrix(1 0 0 1 2396.97 1197)">S: Process step in material flow</text><rect x="1189.5" y="1232.5" width="130" height="65.0004" stroke="#FAD9D5" stroke-width="6.875" stroke-miterlimit="8" fill="#FAD9D5"/><rect x="1189.5" y="1319.5" width="130" height="65" stroke="#CCE5FF" stroke-width="6.875" stroke-miterlimit="8" fill="#CCE5FF"/><rect x="1189.5" y="1407.5" width="130" height="63.9999" stroke="#CDEB8B" stroke-width="6.875" stroke-miterlimit="8" fill="#CDEB8B"/><text font-family="Times New Roman,Times New Roman_MSFontService,sans-serif" font-weight="400" font-size="55" transform="matrix(1 0 0 1 1356.28 1284)">Total loss (TL)</text><text font-family="Times New Roman,Times New Roman_MSFontService,sans-serif" font-weight="400" font-size="55" transform="matrix(1 0 0 1 1352.39 1371)">Rear damage (RD)</text><text font-family="Times New Roman,Times New Roman_MSFontService,sans-serif" font-weight="400" font-size="55" transform="matrix(1 0 0 1 1352.39 1459)">Defective shock absorbers (SA)</text><rect x="1602.5" y="742.5" width="126" height="311" stroke="#000000" stroke-width="6.875" stroke-miterlimit="8" fill="#FFFFFF"/><text font-family="Times New Roman,Times New Roman_MSFontService,sans-serif" font-weight="400" font-size="55" transform="matrix(1 0 0 1 1609.78 918)">B</text><text font-family="Times New Roman,Times New Roman_MSFontService,sans-serif" font-weight="400" font-size="55" transform="matrix(1 0 0 1 1646.45 918)">-</text><text font-family="Times New Roman,Times New Roman_MSFontService,sans-serif" font-weight="400" font-size="55" transform="matrix(1 0 0 1 1664.78 918)">0</text><text font-family="Times New Roman,Times New Roman_MSFontService,sans-serif" font-weight="400" font-size="55" transform="matrix(1 0 0 1 1692.28 918)">3</text><rect x="2018.5" y="742.5" width="126" height="311" stroke="#000000" stroke-width="6.875" stroke-miterlimit="8" fill="#FFFFFF"/><text font-family="Times New Roman,Times New Roman_MSFontService,sans-serif" font-weight="400" font-size="55" transform="matrix(1 0 0 1 2026.02 918)">B</text><text font-family="Times New Roman,Times New Roman_MSFontService,sans-serif" font-weight="400" font-size="55" transform="matrix(1 0 0 1 2062.68 918)">-</text><text font-family="Times New Roman,Times New Roman_MSFontService,sans-serif" font-weight="400" font-size="55" transform="matrix(1 0 0 1 2081.02 918)">0</text><text font-family="Times New Roman,Times New Roman_MSFontService,sans-serif" font-weight="400" font-size="55" transform="matrix(1 0 0 1 2108.52 918)">4</text><rect x="2425.5" y="742.5" width="125" height="311" stroke="#000000" stroke-width="6.875" stroke-miterlimit="8" fill="#FFFFFF"/><text font-family="Times New Roman,Times New Roman_MSFontService,sans-serif" font-weight="400" font-size="55" transform="matrix(1 0 0 1 2432.35 918)">B</text><text font-family="Times New Roman,Times New Roman_MSFontService,sans-serif" font-weight="400" font-size="55" transform="matrix(1 0 0 1 2469.02 918)">-</text><text font-family="Times New Roman,Times New Roman_MSFontService,sans-serif" font-weight="400" font-size="55" transform="matrix(1 0 0 1 2487.35 918)">0</text><text font-family="Times New Roman,Times New Roman_MSFontService,sans-serif" font-weight="400" font-size="55" transform="matrix(1 0 0 1 2514.85 918)">5</text><rect x="1186.5" y="447.5" width="260" height="64.9999" stroke="#FAD9D5" stroke-width="6.875" stroke-miterlimit="8" fill="#FAD9D5"/><text font-family="Times New Roman,Times New Roman_MSFontService,sans-serif" font-weight="400" font-size="55" transform="matrix(1 0 0 1 1282.45 500)">TL</text><rect x="1186.5" y="546.5" width="260" height="64.9999" stroke="#CCE5FF" stroke-width="6.875" stroke-miterlimit="8" fill="#CCE5FF"/><text font-family="Times New Roman,Times New Roman_MSFontService,sans-serif" font-weight="400" font-size="55" transform="matrix(1 0 0 1 1278.15 598)">RD</text><rect x="1186.5" y="646.5" width="260" height="65" stroke="#CDEB8B" stroke-width="6.875" stroke-miterlimit="8" fill="#CDEB8B"/><text font-family="Times New Roman,Times New Roman_MSFontService,sans-serif" font-weight="400" font-size="55" transform="matrix(1 0 0 1 1281.3 698)">SA</text><rect x="2957.5" y="448.5" width="273" height="58.9998" stroke="#FAD9D5" stroke-width="6.875" stroke-miterlimit="8" fill="#FAD9D5"/><text font-family="Times New Roman,Times New Roman_MSFontService,sans-serif" font-weight="400" font-size="55" transform="matrix(1 0 0 1 3059.36 497)">TL</text><rect x="2954.5" y="546.5" width="273" height="67.0001" stroke="#CCE5FF" stroke-width="6.875" stroke-miterlimit="8" fill="#CCE5FF"/><text font-family="Times New Roman,Times New Roman_MSFontService,sans-serif" font-weight="400" font-size="55" transform="matrix(1 0 0 1 3052.15 599)">RD</text><rect x="2954.5" y="646.5" width="273" height="66" stroke="#CDEB8B" stroke-width="6.875" stroke-miterlimit="8" fill="#CDEB8B"/><text font-family="Times New Roman,Times New Roman_MSFontService,sans-serif" font-weight="400" font-size="55" transform="matrix(1 0 0 1 3055.3 699)">SA</text><rect x="1600.5" y="442.5" width="78" height="65" stroke="#FAD9D5" stroke-width="6.875" stroke-miterlimit="8" fill="#FAD9D5"/><rect x="1696.5" y="442.5" width="78" height="65" stroke="#FAD9D5" stroke-width="6.875" stroke-miterlimit="8" fill="#FAD9D5"/><rect x="1792.5" y="442.5" width="77.9996" height="65" stroke="#FAD9D5" stroke-width="6.875" stroke-miterlimit="8" fill="#FAD9D5"/><rect x="1888.5" y="442.5" width="78" height="65" stroke="#FAD9D5" stroke-width="6.875" stroke-miterlimit="8" fill="#FAD9D5"/><path d="M0 0 26.968 0.000360892" stroke="#FAD9D5" stroke-width="6.875" stroke-miterlimit="8" fill="#E3C912" fill-rule="evenodd" transform="matrix(-1 0 0 1 1696.47 473.5)"/><path d="M0 0 26.968 0.000360892" stroke="#FAD9D5" stroke-width="6.875" stroke-miterlimit="8" fill="#E3C912" fill-rule="evenodd" transform="matrix(-1 0 0 1 1794.47 474.5)"/><path d="M0 0 26.968 0.000360892" stroke="#FAD9D5" stroke-width="6.875" stroke-miterlimit="8" fill="#E3C912" fill-rule="evenodd" transform="matrix(-1 0 0 1 1886.47 474.5)"/><path d="M0 0 151.893 0.000360892" stroke="#FAD9D5" stroke-width="6.875" stroke-miterlimit="8" fill="#E3C912" fill-rule="evenodd" transform="matrix(-1 0 0 1 1598.39 473.5)"/><path d="M2957.09 473.5 1966.5 473.499" fill="#E3C912" fill-rule="evenodd"/><path d="M2934.17 476.937 1966.5 476.937 1966.5 470.062 2934.17 470.062ZM2929.59 459.75 2957.09 473.5 2929.59 487.25Z" fill="#FAD9D5"/><rect x="1597.5" y="546.5" width="78" height="64.9999" stroke="#CCE5FF" stroke-width="6.875" stroke-miterlimit="8" fill="#CCE5FF"/><rect x="2226.5" y="546.5" width="78" height="64.9999" stroke="#CCE5FF" stroke-width="6.875" stroke-miterlimit="8" fill="#CCE5FF"/><rect x="2614.5" y="546.5" width="77" height="64.9999" stroke="#CCE5FF" stroke-width="6.875" stroke-miterlimit="8" fill="#CCE5FF"/><rect x="1883.5" y="647.5" width="78" height="65" stroke="#CDEB8B" stroke-width="6.875" stroke-miterlimit="8" fill="#CDEB8B"/><rect x="2519.5" y="644.5" width="78" height="64.9999" stroke="#CDEB8B" stroke-width="6.875" stroke-miterlimit="8" fill="#CDEB8B"/><rect x="2613.5" y="645.5" width="78" height="64.9999" stroke="#CDEB8B" stroke-width="6.875" stroke-miterlimit="8" fill="#CDEB8B"/><path d="M0 0 151.893 0.000360892" stroke="#CCE5FF" stroke-width="6.875" stroke-miterlimit="8" fill="#E3C912" fill-rule="evenodd" transform="matrix(-1 0 0 1 1598.39 578.5)"/><path d="M0 0 124.884 0.000360892" stroke="#CCE5FF" stroke-width="6.875" stroke-miterlimit="8" fill="#E3C912" fill-rule="evenodd" transform="matrix(-1 0 0 1 1796.38 579.5)"/><path d="M0 0 350.787 0.000360892" stroke="#CCE5FF" stroke-width="6.875" stroke-miterlimit="8" fill="#E3C912" fill-rule="evenodd" transform="matrix(-1 0 0 1 2221.29 580.5)"/><path d="M0 0 305.022 0.000360892" stroke="#CCE5FF" stroke-width="6.875" stroke-miterlimit="8" fill="#E3C912" fill-rule="evenodd" transform="matrix(-1 0 0 1 2613.52 579.5)"/><path d="M0 0 261.158 1.09459" fill="#E3C912" fill-rule="evenodd" transform="matrix(-1 0 0 1 2952.66 579.5)"/><path d="M22.9308-3.34142 261.172-2.34288 261.144 4.53206 22.902 3.53352ZM27.4421 13.8651 0 0 27.5574-13.6346Z" fill="#CCE5FF" transform="matrix(-1 0 0 1 2952.66 579.5)"/><path d="M0 0 363.78 0.000360892" stroke="#CDEB8B" stroke-width="6.875" stroke-miterlimit="8" fill="#E3C912" fill-rule="evenodd" transform="matrix(-1 0 0 1 1810.28 677.5)"/><path d="M0 0 558.661 0.000360892" stroke="#CDEB8B" stroke-width="6.875" stroke-miterlimit="8" fill="#E3C912" fill-rule="evenodd" transform="matrix(-1 0 0 1 2519.16 679.5)"/><path d="M0 0 263.208 0.000360892" fill="#E3C912" fill-rule="evenodd" transform="matrix(-1 0 0 1 2954.71 677.5)"/><path d="M22.9165-3.43747 263.208-3.43714 263.208 3.43786 22.9165 3.43753ZM27.5 13.75 0 0 27.5-13.75Z" fill="#CDEB8B" transform="matrix(-1 0 0 1 2954.71 677.5)"/><path d="M2615.48 677.701 2589.5 677.5" stroke="#CDEB8B" stroke-width="6.875" stroke-miterlimit="8" fill="#E3C912" fill-rule="evenodd"/><path d="M1885.48 680.796 1859.5 677.5" stroke="#CDEB8B" stroke-width="6.875" stroke-miterlimit="8" fill="#E3C912" fill-rule="evenodd"/><rect x="2397.5" y="1232.5" width="130" height="65.0004" stroke="#7F7F7F" stroke-width="6.875" stroke-miterlimit="8" fill="#7F7F7F"/><text font-family="Times New Roman,Times New Roman_MSFontService,sans-serif" font-weight="400" font-size="55" transform="matrix(1 0 0 1 2563.77 1284)">Material flow start and end</text><rect x="2395.5" y="1319.5" width="130" height="65" stroke="#000000" stroke-width="6.875" stroke-miterlimit="8" fill="none"/><text font-family="Times New Roman,Times New Roman_MSFontService,sans-serif" font-weight="400" font-size="55" transform="matrix(1 0 0 1 2570.35 1371)">Bu</text><text font-family="Times New Roman,Times New Roman_MSFontService,sans-serif" font-weight="400" font-size="55" transform="matrix(1 0 0 1 2634.52 1371)">ffer</text><text font-family="Times New Roman,Times New Roman_MSFontService,sans-serif" font-weight="400" font-size="55" transform="matrix(1 0 0 1 2726.92 1371)">(B)</text><rect x="2395.5" y="1407.5" width="130" height="63.9999" stroke="#E8E8E8" stroke-width="6.875" stroke-miterlimit="8" fill="#E8E8E8"/><text font-family="Times New Roman,Times New Roman_MSFontService,sans-serif" font-weight="400" font-size="55" transform="matrix(1 0 0 1 2563.77 1459)">Works</text><text font-family="Times New Roman,Times New Roman_MSFontService,sans-serif" font-weight="400" font-size="55" transform="matrix(1 0 0 1 2706.04 1459)">tation</text><text font-family="Times New Roman,Times New Roman_MSFontService,sans-serif" font-weight="400" font-size="55" transform="matrix(1 0 0 1 2845.83 1459)">(WS)</text><rect x="1132.5" y="273.5" width="2143" height="104" stroke="#000000" stroke-width="6.875" stroke-miterlimit="8" fill="#E8E8E8"/><text font-family="Times New Roman,Times New Roman_MSFontService,sans-serif" font-weight="700" font-size="55" transform="matrix(1 0 0 1 1434.03 345)">Scenario #1: </text><text font-family="Times New Roman,Times New Roman_MSFontService,sans-serif" font-weight="400" font-size="55" transform="matrix(1 0 0 1 1739.97 345)">Line </text><text font-family="Times New Roman,Times New Roman_MSFontService,sans-serif" font-weight="400" font-size="55" transform="matrix(1 0 0 1 1855.13 345)">–</text><text font-family="Times New Roman,Times New Roman_MSFontService,sans-serif" font-weight="400" font-size="55" transform="matrix(1 0 0 1 1896.38 345)">3 W</text><text font-family="Times New Roman,Times New Roman_MSFontService,sans-serif" font-weight="400" font-size="55" transform="matrix(1 0 0 1 1984.38 345)">orkstations</text><text font-family="Times New Roman,Times New Roman_MSFontService,sans-serif" font-weight="400" font-size="55" transform="matrix(1 0 0 1 2239.9 345)">–</text><text font-family="Times New Roman,Times New Roman_MSFontService,sans-serif" font-weight="400" font-size="55" transform="matrix(1 0 0 1 2281.15 345)">Division of L</text><text font-family="Times New Roman,Times New Roman_MSFontService,sans-serif" font-weight="400" font-size="55" transform="matrix(1 0 0 1 2577.92 345)">abor</text><text font-family="Times New Roman,Times New Roman_MSFontService,sans-serif" font-weight="400" font-size="55" transform="matrix(1 0 0 1 2689.64 345)">–</text><text font-family="Times New Roman,Times New Roman_MSFontService,sans-serif" font-weight="400" font-size="55" transform="matrix(1 0 0 1 2727.86 345)">Automated </text><text font-family="Times New Roman,Times New Roman_MSFontService,sans-serif" font-weight="400" font-size="55" transform="matrix(1 0 0 1 1609.89 493)">S1</text><text font-family="Times New Roman,Times New Roman_MSFontService,sans-serif" font-weight="400" font-size="55" transform="matrix(1 0 0 1 1706.01 495)">S2</text><text font-family="Times New Roman,Times New Roman_MSFontService,sans-serif" font-weight="400" font-size="55" transform="matrix(1 0 0 1 1800.47 493)">S3</text><text font-family="Times New Roman,Times New Roman_MSFontService,sans-serif" font-weight="400" font-size="55" transform="matrix(1 0 0 1 1894.98 494)">S4</text><text font-family="Times New Roman,Times New Roman_MSFontService,sans-serif" font-weight="400" font-size="55" transform="matrix(1 0 0 1 1606.93 600)">S1</text><text font-family="Times New Roman,Times New Roman_MSFontService,sans-serif" font-weight="400" font-size="55" transform="matrix(1 0 0 1 1802.13 598)">S3</text><text font-family="Times New Roman,Times New Roman_MSFontService,sans-serif" font-weight="400" font-size="55" transform="matrix(1 0 0 1 2236.78 598)">S7</text><text font-family="Times New Roman,Times New Roman_MSFontService,sans-serif" font-weight="400" font-size="55" transform="matrix(1 0 0 1 2623.98 599)">S8</text><text font-family="Times New Roman,Times New Roman_MSFontService,sans-serif" font-weight="400" font-size="55" transform="matrix(1 0 0 1 1798.94 697)">S3</text><text font-family="Times New Roman,Times New Roman_MSFontService,sans-serif" font-weight="400" font-size="55" transform="matrix(1 0 0 1 1895.14 697)">S4</text><text font-family="Times New Roman,Times New Roman_MSFontService,sans-serif" font-weight="400" font-size="55" transform="matrix(1 0 0 1 2623.98 697)">S8</text><text font-family="Times New Roman,Times New Roman_MSFontService,sans-serif" font-weight="400" font-size="55" transform="matrix(1 0 0 1 2529.54 697)">S6</text><path d="M1319.42 1148.5 1189.5 1148.5" fill="#E3C912" fill-rule="evenodd"/><path d="M1296.5 1151.94 1189.5 1151.94 1189.5 1145.06 1296.5 1145.06ZM1291.92 1134.75 1319.42 1148.5 1291.92 1162.25Z" fill="#FAD9D5"/><path d="M0 0 129.921 1.09459" fill="#E3C912" fill-rule="evenodd" transform="matrix(-1 0 0 1 1319.42 1177.5)"/><path d="M22.9448-3.24431 129.95-2.34279 129.892 4.53196 22.8869 3.63044ZM27.3832 13.9812 0 0 27.6149-13.5178Z" fill="#CCE5FF" transform="matrix(-1 0 0 1 1319.42 1177.5)"/><path d="M0 0 129.921 0.000360892" fill="#E3C912" fill-rule="evenodd" transform="matrix(-1 0 0 1 1319.42 1207.5)"/><path d="M22.9167-3.43744 129.921-3.43714 129.921 3.43786 22.9167 3.43756ZM27.5 13.7501 0 0 27.5-13.7499Z" fill="#CDEB8B" transform="matrix(-1 0 0 1 1319.42 1207.5)"/><text font-family="Times New Roman,Times New Roman_MSFontService,sans-serif" font-weight="400" font-size="55" transform="matrix(1 0 0 1 1356.28 1197)">Material flow direction</text></g></svg>